<?xml version="1.0" encoding="UTF-8" standalone="no"?>
<!-- Created with Inkscape (http://www.inkscape.org/) -->

<svg
   xmlns:dc="http://purl.org/dc/elements/1.1/"
   xmlns:cc="http://creativecommons.org/ns#"
   xmlns:rdf="http://www.w3.org/1999/02/22-rdf-syntax-ns#"
   xmlns:svg="http://www.w3.org/2000/svg"
   xmlns="http://www.w3.org/2000/svg"
   xmlns:sodipodi="http://sodipodi.sourceforge.net/DTD/sodipodi-0.dtd"
   xmlns:inkscape="http://www.inkscape.org/namespaces/inkscape"
   width="710.0014"
   height="562.3924"
   id="svg24067"
   version="1.1"
   inkscape:version="0.48.4 r9939"
   sodipodi:docname="New document 137">
  <defs
     id="defs24069" />
  <sodipodi:namedview
     id="base"
     pagecolor="#ffffff"
     bordercolor="#666666"
     borderopacity="1.0"
     inkscape:pageopacity="0.0"
     inkscape:pageshadow="2"
     inkscape:zoom="0.35"
     inkscape:cx="356.00122"
     inkscape:cy="281.15524"
     inkscape:document-units="px"
     inkscape:current-layer="layer1"
     showgrid="false"
     fit-margin-top="0"
     fit-margin-left="0"
     fit-margin-right="0"
     fit-margin-bottom="0"
     inkscape:window-width="472"
     inkscape:window-height="383"
     inkscape:window-x="389"
     inkscape:window-y="24"
     inkscape:window-maximized="0" />
  <metadata
     id="metadata24072">
    <rdf:RDF>
      <cc:Work
         rdf:about="">
        <dc:format>image/svg+xml</dc:format>
        <dc:type
           rdf:resource="http://purl.org/dc/dcmitype/StillImage" />
        <dc:title></dc:title>
      </cc:Work>
    </rdf:RDF>
  </metadata>
  <g
     inkscape:label="Layer 1"
     inkscape:groupmode="layer"
     id="layer1"
     transform="translate(-18.998776,-251.125)">
    <g
       id="g24220">
      <path
         sodipodi:nodetypes="cccccccc"
         inkscape:connector-curvature="0"
         d="m 205.00017,803.36218 0,-144 28,-28 0,-76 40,-40 0,-104 24,-24 0,-88"
         style="fill:none;stroke:#edd400;stroke-width:20;stroke-linecap:round;stroke-linejoin:round;stroke-miterlimit:4;stroke-opacity:1;stroke-dasharray:none;display:inline"
         id="path16113" />
      <path
         sodipodi:type="arc"
         style="fill:#ffffff;fill-opacity:1;stroke:#edd400;stroke-width:30;stroke-linecap:round;stroke-miterlimit:4;stroke-opacity:1;stroke-dasharray:none;display:inline"
         id="path16115"
         sodipodi:cx="-700"
         sodipodi:cy="152.36218"
         sodipodi:rx="60"
         sodipodi:ry="60"
         d="m -640,152.36218 c 0,33.13709 -26.86292,60 -60,60 -33.13708,0 -60,-26.86291 -60,-60 0,-33.13708 26.86292,-59.999997 60,-59.999997 33.13708,0 60,26.862917 60,59.999997 z"
         transform="matrix(0.13333333,0,0,0.13333333,390.33317,291.04722)" />
      <path
         transform="matrix(0.13333333,0,0,0.13333333,390.33317,323.04722)"
         d="m -640,152.36218 c 0,33.13709 -26.86292,60 -60,60 -33.13708,0 -60,-26.86291 -60,-60 0,-33.13708 26.86292,-59.999997 60,-59.999997 33.13708,0 60,26.862917 60,59.999997 z"
         sodipodi:ry="60"
         sodipodi:rx="60"
         sodipodi:cy="152.36218"
         sodipodi:cx="-700"
         id="path16117"
         style="fill:#ffffff;fill-opacity:1;stroke:#edd400;stroke-width:30;stroke-linecap:round;stroke-miterlimit:4;stroke-opacity:1;stroke-dasharray:none;display:inline"
         sodipodi:type="arc" />
      <path
         sodipodi:type="arc"
         style="fill:#ffffff;fill-opacity:1;stroke:#edd400;stroke-width:30;stroke-linecap:round;stroke-miterlimit:4;stroke-opacity:1;stroke-dasharray:none;display:inline"
         id="path16119"
         sodipodi:cx="-700"
         sodipodi:cy="152.36218"
         sodipodi:rx="60"
         sodipodi:ry="60"
         d="m -640,152.36218 c 0,33.13709 -26.86292,60 -60,60 -33.13708,0 -60,-26.86291 -60,-60 0,-33.13708 26.86292,-59.999997 60,-59.999997 33.13708,0 60,26.862917 60,59.999997 z"
         transform="matrix(0.13333333,0,0,0.13333333,390.33317,351.04722)" />
      <path
         sodipodi:nodetypes="cccccc"
         inkscape:connector-curvature="0"
         d="m 125.00017,803.36218 0,-160 -28.000004,-28 0,-164 28.000004,-28 0,-84"
         style="fill:none;stroke:#75507b;stroke-width:20;stroke-linecap:round;stroke-linejoin:round;stroke-miterlimit:4;stroke-opacity:1;stroke-dasharray:none;display:inline"
         id="path16123" />
      <path
         sodipodi:type="arc"
         style="fill:#ffffff;fill-opacity:1;stroke:#75507b;stroke-width:30;stroke-linecap:round;stroke-miterlimit:4;stroke-opacity:1;stroke-dasharray:none;display:inline"
         id="path16125"
         sodipodi:cx="-700"
         sodipodi:cy="152.36218"
         sodipodi:rx="60"
         sodipodi:ry="60"
         d="m -640,152.36218 c 0,33.13709 -26.86292,60 -60,60 -33.13708,0 -60,-26.86291 -60,-60 0,-33.13708 26.86292,-59.999997 60,-59.999997 33.13708,0 60,26.862917 60,59.999997 z"
         transform="matrix(0.13333333,0,0,0.13333333,218.33317,387.04722)" />
      <path
         transform="matrix(0.13333333,0,0,0.13333333,218.33317,359.04722)"
         d="m -640,152.36218 c 0,33.13709 -26.86292,60 -60,60 -33.13708,0 -60,-26.86291 -60,-60 0,-33.13708 26.86292,-59.999997 60,-59.999997 33.13708,0 60,26.862917 60,59.999997 z"
         sodipodi:ry="60"
         sodipodi:rx="60"
         sodipodi:cy="152.36218"
         sodipodi:cx="-700"
         id="path16127"
         style="fill:#ffffff;fill-opacity:1;stroke:#75507b;stroke-width:30;stroke-linecap:round;stroke-miterlimit:4;stroke-opacity:1;stroke-dasharray:none;display:inline"
         sodipodi:type="arc" />
      <path
         sodipodi:type="arc"
         style="fill:#ffffff;fill-opacity:1;stroke:#75507b;stroke-width:30;stroke-linecap:round;stroke-miterlimit:4;stroke-opacity:1;stroke-dasharray:none;display:inline"
         id="path16129"
         sodipodi:cx="-700"
         sodipodi:cy="152.36218"
         sodipodi:rx="60"
         sodipodi:ry="60"
         d="m -640,152.36218 c 0,33.13709 -26.86292,60 -60,60 -33.13708,0 -60,-26.86291 -60,-60 0,-33.13708 26.86292,-59.999997 60,-59.999997 33.13708,0 60,26.862917 60,59.999997 z"
         transform="matrix(0.13333333,0,0,0.13333333,218.33317,331.04722)" />
      <path
         sodipodi:nodetypes="cccc"
         inkscape:connector-curvature="0"
         d="m 165.00017,803.36218 0,-160 28,-28 0,-92"
         style="fill:none;stroke:#c17d11;stroke-width:20;stroke-linecap:round;stroke-linejoin:round;stroke-miterlimit:4;stroke-opacity:1;stroke-dasharray:none;display:inline"
         id="path16133" />
      <path
         sodipodi:type="arc"
         style="fill:#ffffff;fill-opacity:1;stroke:#c17d11;stroke-width:30;stroke-linecap:round;stroke-miterlimit:4;stroke-opacity:1;stroke-dasharray:none;display:inline"
         id="path16135"
         sodipodi:cx="-700"
         sodipodi:cy="152.36218"
         sodipodi:rx="60"
         sodipodi:ry="60"
         d="m -640,152.36218 c 0,33.13709 -26.86292,60 -60,60 -33.13708,0 -60,-26.86291 -60,-60 0,-33.13708 26.86292,-59.999997 60,-59.999997 33.13708,0 60,26.862917 60,59.999997 z"
         transform="matrix(0.13333333,0,0,0.13333333,286.33317,515.04722)" />
      <path
         id="path16139"
         style="fill:none;stroke:#cc0000;stroke-width:20;stroke-linecap:round;stroke-linejoin:round;stroke-miterlimit:4;stroke-opacity:1;stroke-dasharray:none;display:inline"
         d="m 185.00017,803.36218 0,-152 28,-28 0,-76 40,-40 0,-96 -24,-24 0,-84"
         inkscape:connector-curvature="0"
         sodipodi:nodetypes="cccccccc" />
      <path
         transform="matrix(0.13333333,0,0,0.13333333,322.33317,351.04722)"
         d="m -640,152.36218 c 0,33.13709 -26.86292,60 -60,60 -33.13708,0 -60,-26.86291 -60,-60 0,-33.13708 26.86292,-59.999997 60,-59.999997 33.13708,0 60,26.862917 60,59.999997 z"
         sodipodi:ry="60"
         sodipodi:rx="60"
         sodipodi:cy="152.36218"
         sodipodi:cx="-700"
         id="path16141"
         style="fill:#ffffff;fill-opacity:1;stroke:#cc0000;stroke-width:30;stroke-linecap:round;stroke-miterlimit:4;stroke-opacity:1;stroke-dasharray:none;display:inline"
         sodipodi:type="arc" />
      <path
         sodipodi:type="arc"
         style="fill:#ffffff;fill-opacity:1;stroke:#cc0000;stroke-width:30;stroke-linecap:round;stroke-miterlimit:4;stroke-opacity:1;stroke-dasharray:none;display:inline"
         id="path16143"
         sodipodi:cx="-700"
         sodipodi:cy="152.36218"
         sodipodi:rx="60"
         sodipodi:ry="60"
         d="m -640,152.36218 c 0,33.13709 -26.86292,60 -60,60 -33.13708,0 -60,-26.86291 -60,-60 0,-33.13708 26.86292,-59.999997 60,-59.999997 33.13708,0 60,26.862917 60,59.999997 z"
         transform="matrix(0.13333333,0,0,0.13333333,322.33317,323.04722)" />
      <path
         transform="matrix(0.13333333,0,0,0.13333333,322.33317,295.04722)"
         d="m -640,152.36218 c 0,33.13709 -26.86292,60 -60,60 -33.13708,0 -60,-26.86291 -60,-60 0,-33.13708 26.86292,-59.999997 60,-59.999997 33.13708,0 60,26.862917 60,59.999997 z"
         sodipodi:ry="60"
         sodipodi:rx="60"
         sodipodi:cy="152.36218"
         sodipodi:cx="-700"
         id="path16145"
         style="fill:#ffffff;fill-opacity:1;stroke:#cc0000;stroke-width:30;stroke-linecap:round;stroke-miterlimit:4;stroke-opacity:1;stroke-dasharray:none;display:inline"
         sodipodi:type="arc" />
      <path
         id="path16147"
         style="fill:#ffffff;fill-opacity:1;stroke:#f57900;stroke-width:20;stroke-linecap:round;stroke-linejoin:round;stroke-miterlimit:4;stroke-opacity:1;stroke-dasharray:none;display:inline"
         d="m 85.000166,803.36218 0,-144 -28,-28 0,-212 -28,-24 0,-92"
         inkscape:connector-curvature="0"
         sodipodi:nodetypes="cccccc" />
      <path
         sodipodi:nodetypes="cccc"
         inkscape:connector-curvature="0"
         id="path16149"
         d="m 105.00017,803.36218 0,-152 -28.000004,-28 0,-200"
         style="fill:none;stroke:#73d216;stroke-width:20;stroke-linecap:round;stroke-linejoin:round;stroke-miterlimit:4;stroke-opacity:1;stroke-dasharray:none;display:inline" />
      <path
         id="path16151"
         style="fill:none;stroke:#3465a4;stroke-width:20;stroke-linecap:round;stroke-linejoin:round;stroke-miterlimit:4;stroke-opacity:1;stroke-dasharray:none;display:inline"
         d="m 145.00017,635.36218 0,168"
         inkscape:connector-curvature="0"
         sodipodi:nodetypes="cc" />
      <path
         style="fill:#ffffff;fill-opacity:1;stroke:#2e3436;stroke-width:4;stroke-linecap:round;stroke-miterlimit:4;stroke-opacity:1;display:inline"
         d="m 85.000166,711.36218 c -4.4183,0 -8,-4.2288 -8,-8 0,-3.7713 3.5817,-8 8,-8 l 120.000004,0 c 4.4183,0 8,3.5817 8,8 0,4.4183 -3.5817,8 -8,8 z"
         id="path16153"
         inkscape:connector-curvature="0"
         sodipodi:nodetypes="csccscc" />
      <path
         sodipodi:nodetypes="csccscc"
         inkscape:connector-curvature="0"
         id="path16155"
         d="m 85.000166,679.36218 c -4.4183,0 -8,-4.2288 -8,-8 0,-3.7713 3.5817,-8 8,-8 l 120.000004,0 c 4.4183,0 8,3.5817 8,8 0,4.4183 -3.5817,8 -8,8 z"
         style="fill:#ffffff;fill-opacity:1;stroke:#2e3436;stroke-width:4;stroke-linecap:round;stroke-miterlimit:4;stroke-opacity:1;display:inline" />
      <path
         inkscape:connector-curvature="0"
         id="path16157"
         d="M 185.00017,655.36218 z"
         style="fill:none;stroke:#000000;stroke-width:1px;stroke-linecap:butt;stroke-linejoin:miter;stroke-opacity:1;display:inline" />
      <path
         style="fill:#ffffff;fill-opacity:1;stroke:#2e3436;stroke-width:4;stroke-linecap:round;stroke-miterlimit:4;stroke-opacity:1;display:inline"
         d="m 193.00017,607.36218 c -4.4183,0 -8,-4.2288 -8,-8 0,-3.7713 3.5817,-8 8,-8 l 40,0 c 4.4183,0 8,3.5817 8,8 0,4.4183 -3.5817,8 -8,8 z"
         id="path16159"
         inkscape:connector-curvature="0"
         sodipodi:nodetypes="csccscc" />
      <path
         sodipodi:nodetypes="csccscc"
         inkscape:connector-curvature="0"
         id="path16161"
         d="m 193.00017,575.36218 c -4.4183,0 -8,-4.2288 -8,-8 0,-3.7713 3.5817,-8 8,-8 l 40,0 c 4.4183,0 8,3.5817 8,8 0,4.4183 -3.5817,8 -8,8 z"
         style="fill:#ffffff;fill-opacity:1;stroke:#2e3436;stroke-width:4;stroke-linecap:round;stroke-miterlimit:4;stroke-opacity:1;display:inline" />
      <path
         style="fill:#ffffff;fill-opacity:1;stroke:#2e3436;stroke-width:4;stroke-linecap:round;stroke-miterlimit:4;stroke-opacity:1;display:inline"
         d="m 253.00017,495.36218 c -4.4183,0 -8,-4.2288 -8,-8 0,-3.7713 3.5817,-8 8,-8 l 20,0 c 4.4183,0 8,3.5817 8,8 0,4.4183 -3.5817,8 -8,8 z"
         id="path16163"
         inkscape:connector-curvature="0"
         sodipodi:nodetypes="csccscc" />
      <path
         sodipodi:nodetypes="csccscc"
         inkscape:connector-curvature="0"
         id="path16165"
         d="m 253.00017,467.36218 c -4.4183,0 -8,-4.2288 -8,-8 0,-3.7713 3.5817,-8 8,-8 l 20,0 c 4.4183,0 8,3.5817 8,8 0,4.4183 -3.5817,8 -8,8 z"
         style="fill:#ffffff;fill-opacity:1;stroke:#2e3436;stroke-width:4;stroke-linecap:round;stroke-miterlimit:4;stroke-opacity:1;display:inline" />
      <path
         style="fill:#ffffff;fill-opacity:1;stroke:#2e3436;stroke-width:4;stroke-linecap:round;stroke-miterlimit:4;stroke-opacity:1;display:inline"
         d="m 253.00017,439.36218 c -4.4183,0 -8,-4.2288 -8,-8 0,-3.7713 3.5817,-8 8,-8 l 20,0 c 4.4183,0 8,3.5817 8,8 0,4.4183 -3.5817,8 -8,8 z"
         id="path16167"
         inkscape:connector-curvature="0"
         sodipodi:nodetypes="csccscc" />
      <path
         sodipodi:nodetypes="csccscc"
         inkscape:connector-curvature="0"
         id="path16169"
         d="m 57.000166,607.36218 c -4.4183,0 -8,-4.2288 -8,-8 0,-3.7713 3.5817,-8 8,-8 l 40,0 c 4.418304,0 8.000004,3.5817 8.000004,8 0,4.4183 -3.5817,8 -8.000004,8 z"
         style="fill:#ffffff;fill-opacity:1;stroke:#2e3436;stroke-width:4;stroke-linecap:round;stroke-miterlimit:4;stroke-opacity:1;display:inline" />
      <path
         style="fill:#ffffff;fill-opacity:1;stroke:#2e3436;stroke-width:4;stroke-linecap:round;stroke-miterlimit:4;stroke-opacity:1;display:inline"
         d="m 57.000166,575.36218 c -4.4183,0 -8,-4.2288 -8,-8 0,-3.7713 3.5817,-8 8,-8 l 40,0 c 4.418304,0 8.000004,3.5817 8.000004,8 0,4.4183 -3.5817,8 -8.000004,8 z"
         id="path16171"
         inkscape:connector-curvature="0"
         sodipodi:nodetypes="csccscc" />
      <path
         sodipodi:nodetypes="csccscc"
         inkscape:connector-curvature="0"
         id="path16173"
         d="m 57.000166,543.36218 c -4.4183,0 -8,-4.2288 -8,-8 0,-3.7713 3.5817,-8 8,-8 l 40,0 c 4.418304,0 8.000004,3.5817 8.000004,8 0,4.4183 -3.5817,8 -8.000004,8 z"
         style="fill:#ffffff;fill-opacity:1;stroke:#2e3436;stroke-width:4;stroke-linecap:round;stroke-miterlimit:4;stroke-opacity:1;display:inline" />
      <path
         style="fill:#ffffff;fill-opacity:1;stroke:#2e3436;stroke-width:4;stroke-linecap:round;stroke-miterlimit:4;stroke-opacity:1;display:inline"
         d="m 57.000166,511.36218 c -4.4183,0 -8,-4.2288 -8,-8 0,-3.7713 3.5817,-8 8,-8 l 40,0 c 4.418304,0 8.000004,3.5817 8.000004,8 0,4.4183 -3.5817,8 -8.000004,8 z"
         id="path16175"
         inkscape:connector-curvature="0"
         sodipodi:nodetypes="csccscc" />
      <path
         sodipodi:nodetypes="csccscc"
         inkscape:connector-curvature="0"
         id="path16177"
         d="m 57.000166,479.36218 c -4.4183,0 -8,-4.2288 -8,-8 0,-3.7713 3.5817,-8 8,-8 l 40,0 c 4.418304,0 8.000004,3.5817 8.000004,8 0,4.4183 -3.5817,8 -8.000004,8 z"
         style="fill:#ffffff;fill-opacity:1;stroke:#2e3436;stroke-width:4;stroke-linecap:round;stroke-miterlimit:4;stroke-opacity:1;display:inline" />
      <path
         sodipodi:nodetypes="csccscc"
         inkscape:connector-curvature="0"
         id="path16179"
         d="m 57.000166,447.36218 c -4.4183,0 -8,-4.2288 -8,-8 0,-3.7713 3.5817,-8 8,-8 l 20,0 c 4.4183,0 8,3.5817 8,8 0,4.4183 -3.5817,8 -8,8 z"
         style="fill:#ffffff;fill-opacity:1;stroke:#2e3436;stroke-width:4;stroke-linecap:round;stroke-miterlimit:4;stroke-opacity:1;display:inline" />
      <path
         transform="matrix(0.13333333,0,0,0.13333333,122.33317,355.04722)"
         d="m -640,152.36218 c 0,33.13709 -26.86292,60 -60,60 -33.13708,0 -60,-26.86291 -60,-60 0,-33.13708 26.86292,-59.999997 60,-59.999997 33.13708,0 60,26.862917 60,59.999997 z"
         sodipodi:ry="60"
         sodipodi:rx="60"
         sodipodi:cy="152.36218"
         sodipodi:cx="-700"
         id="path16181"
         style="fill:#ffffff;fill-opacity:1;stroke:#f57900;stroke-width:30;stroke-linecap:round;stroke-miterlimit:4;stroke-opacity:1;stroke-dasharray:none;display:inline"
         sodipodi:type="arc" />
      <path
         sodipodi:type="arc"
         style="fill:#ffffff;fill-opacity:1;stroke:#f57900;stroke-width:30;stroke-linecap:round;stroke-miterlimit:4;stroke-opacity:1;stroke-dasharray:none;display:inline"
         id="path16183"
         sodipodi:cx="-700"
         sodipodi:cy="152.36218"
         sodipodi:rx="60"
         sodipodi:ry="60"
         d="m -640,152.36218 c 0,33.13709 -26.86292,60 -60,60 -33.13708,0 -60,-26.86291 -60,-60 0,-33.13708 26.86292,-59.999997 60,-59.999997 33.13708,0 60,26.862917 60,59.999997 z"
         transform="matrix(0.13333333,0,0,0.13333333,122.33317,327.04722)" />
      <path
         transform="matrix(0.13333333,0,0,0.13333333,122.33317,299.04722)"
         d="m -640,152.36218 c 0,33.13709 -26.86292,60 -60,60 -33.13708,0 -60,-26.86291 -60,-60 0,-33.13708 26.86292,-59.999997 60,-59.999997 33.13708,0 60,26.862917 60,59.999997 z"
         sodipodi:ry="60"
         sodipodi:rx="60"
         sodipodi:cy="152.36218"
         sodipodi:cx="-700"
         id="path16185"
         style="fill:#ffffff;fill-opacity:1;stroke:#f57900;stroke-width:30;stroke-linecap:round;stroke-miterlimit:4;stroke-opacity:1;stroke-dasharray:none;display:inline"
         sodipodi:type="arc" />
      <path
         sodipodi:nodetypes="csccscc"
         inkscape:connector-curvature="0"
         id="path16187"
         d="m 85.000166,743.36218 c -4.4183,0 -8,-4.2288 -8,-8 0,-3.7713 3.5817,-8 8,-8 l 120.000004,0 c 4.4183,0 8,3.5817 8,8 0,4.4183 -3.5817,8 -8,8 z"
         style="fill:#ffffff;fill-opacity:1;stroke:#2e3436;stroke-width:4;stroke-linecap:round;stroke-miterlimit:4;stroke-opacity:1;display:inline" />
      <path
         style="fill:#ffffff;fill-opacity:1;stroke:#2e3436;stroke-width:4;stroke-linecap:round;stroke-miterlimit:4;stroke-opacity:1;display:inline"
         d="m 85.000166,771.36218 c -4.4183,0 -8,-4.2288 -8,-8 0,-3.7713 3.5817,-8 8,-8 l 120.000004,0 c 4.4183,0 8,3.5817 8,8 0,4.4183 -3.5817,8 -8,8 z"
         id="path16189"
         inkscape:connector-curvature="0"
         sodipodi:nodetypes="csccscc" />
      <path
         sodipodi:nodetypes="csccscc"
         inkscape:connector-curvature="0"
         id="path16191"
         d="m 85.000166,799.36218 c -4.4183,0 -8,-4.2288 -8,-8 0,-3.7713 3.5817,-8 8,-8 l 120.000004,0 c 4.4183,0 8,3.5817 8,8 0,4.4183 -3.5817,8 -8,8 z"
         style="fill:#ffffff;fill-opacity:1;stroke:#2e3436;stroke-width:4;stroke-linecap:round;stroke-miterlimit:4;stroke-opacity:1;display:inline" />
      <path
         style="font-size:medium;font-style:normal;font-variant:normal;font-weight:normal;font-stretch:normal;text-indent:0;text-align:start;text-decoration:none;line-height:normal;letter-spacing:normal;word-spacing:normal;text-transform:none;direction:ltr;block-progression:tb;writing-mode:lr-tb;text-anchor:start;baseline-shift:baseline;color:#000000;fill:#e9b96e;fill-opacity:1;stroke:#ce5c00;stroke-width:4;stroke-miterlimit:4;stroke-opacity:1;stroke-dasharray:none;marker:none;visibility:visible;display:inline;overflow:visible;enable-background:accumulate;font-family:Sans;-inkscape-font-specification:Sans"
         d="m 729.00017,811.36218 c -46,0 -122,0 -122,-36 l -2e-4,-52.9921 0,-45.6875 c 2.6384,-2.3031 5.1791,-4.8845 7.5938,-7.875 5.7082,-7.0695 10.6055,-17.8727 10.375,-29.4375 l 0.031,0 0,-64 c 0.022,-1.032 -0.01,-2.0651 -0.094,-3.0938 17.3868,-14.0991 26.3535,-36.425 30.7188,-59.125 5.5753,-28.9886 5.3756,-61.7813 5.3756,-93.7813 0,-8.0078 5.5339,-9.8914 10.125,-16.5 6.163,-9.0075 11.875,-20.0122 11.875,-31.5078 0,-24 0,-48.5478 0,-71.9922 0.037,-2.6416 -1.0236,-5.2818 -2.8784,-7.163 -1.8548,-1.8812 -4.4798,-2.9794 -7.1216,-2.9794 -2.6418,0 -5.2668,1.0982 -7.1216,2.9794 -1.8548,1.8812 -2.9158,4.5214 -2.8784,7.163 0,24.5556 0,50.9922 0,69.9922 -1.3744,9.62 -4.788,16.9839 -8.375,22.2266 -2.4667,3.6051 -5.3493,6.1941 -9.4062,7.9687 -1.486,-0.3279 -3.0096,-0.4855 -4.5313,-0.4687 -1.2278,0.023 -2.4534,0.1589 -3.6563,0.4062 -3.5126,-1.7364 -5.8261,-4.303 -7.8437,-8.0938 -2.9998,-5.636 -4.1875,-13.811 -4.1875,-24.039 0,-21 0,-46.6667 0,-68 0.042,-2.6701 -1.0397,-5.3399 -2.928,-7.2282 -1.8883,-1.8883 -4.5581,-2.9698 -7.2282,-2.928 -2.618,0.041 -5.2031,1.1592 -7.0254,3.0393 -1.8223,1.8801 -2.8594,4.4989 -2.8184,7.1169 0,18.6667 0,44 0,68 0,11.7949 1.3123,23.5813 6.5625,33.4453 6.2111,10.1987 9.4109,8.0129 9.4375,18.5625 0,32 -0.1997,63.2071 -4.625,86.2188 -4.4253,23.0114 -11.3502,34.6338 -22.8125,39.2187 -0.1783,0.081 -0.3554,0.1641 -0.5313,0.25 -2.0374,0.127 -4.0618,0.4626 -6.0312,1 l 0,-26.6875 c 0.042,-2.6701 -1.0397,-5.3399 -2.928,-7.2282 -1.8883,-1.8883 -4.5581,-2.9698 -7.2282,-2.928 -2.618,0.041 -5.2031,1.1592 -7.0254,3.0393 -1.8223,1.8801 -2.8594,4.4989 -2.8184,7.1169 0,6.9922 0,68.9922 0,113.9922 0,5.211 -9,2 -20,8.6328 l 0,-14.625 c 0.042,-2.6701 -1.0397,-5.3399 -2.928,-7.2282 -1.8883,-1.8883 -4.5581,-2.9698 -7.2282,-2.928 -2.618,0.041 -5.2031,1.1592 -7.0254,3.0393 -1.8223,1.8801 -2.8594,4.4989 -2.8184,7.1169 l 0,15.5625 c -13.9766,-6.6735 -20,-2.5703 -21,-11.5703 l 0,-136 c 0,-17 -0.8635,-19 0,-19 14.875,0.1328 33.125,-23.1328 33,-45 0,-22 0,-49.0895 0,-75.9922 0.042,-2.6701 -1.0397,-5.3399 -2.928,-7.2282 -1.8883,-1.8883 -4.5581,-2.9698 -7.2282,-2.928 -2.618,0.041 -5.2031,1.1592 -7.0254,3.0393 -1.8223,1.8801 -2.8594,4.4989 -2.8184,7.1169 0,28.9922 -0.027,53.2436 0,73.9922 0,26 -12,22 -30,22.0078 -0.2457,-8.5568 0.3609,-17.6121 -0.062,-26 0,-0.021 0,-0.042 0,-0.062 0.051,-1.8646 0.062,-3.8344 0.062,-5.9375 0.1981,-23.0856 -16,-8.0083 -24,-8.0083 -24,-8 -19.8085,-60.6142 -20,-80.1876 0.017,-2.6705 -1.0889,-5.3304 -2.9946,-7.2013 -1.9057,-1.8708 -4.5857,-2.9276 -7.2554,-2.8611 -2.6182,0.065 -5.1935,1.2075 -6.9985,3.1051 -1.805,1.8976 -2.8175,4.5268 -2.7515,7.1449 0.035,49.6002 -2.7454,76.7893 24,100 -0.1236,49.5565 -0.01,152.9606 2e-4,200.0079 0.01,17.536 8.0672,31.9843 18,42.6562 l 0,48.3438 2e-4,52.9921 c 0,36 -42,36 -58,36"
         id="path16195"
         inkscape:connector-curvature="0"
         sodipodi:nodetypes="ccccsccccsccscssscccccccscscscsccsccccscsccccscscccccccscsccccccccscsccccccc" />
      <path
         id="use16197"
         style="fill:#8ae234;stroke:#4e9a06;stroke-width:4;stroke-linecap:round;stroke-linejoin:miter;stroke-miterlimit:4;stroke-opacity:1;stroke-dasharray:none;display:inline"
         d="m 487.47747,384.14888 c 8.8683,3.7399 19.2494,6.8982 23.642,12.6909 m -23.642,-12.6909 c -1.9111,11.8113 16.8164,30.3864 31.5226,16.9211 -3.9011,-28.8316 -29.1033,-17.7742 -31.5226,-16.9211 z"
         inkscape:connector-curvature="0" />
      <path
         id="use16199"
         style="fill:#8ae234;stroke:#4e9a06;stroke-width:4;stroke-linecap:round;stroke-linejoin:miter;stroke-miterlimit:4;stroke-opacity:1;stroke-dasharray:none;display:inline"
         d="m 450.87517,287.27628 c -5.0897,8.1687 -11.7507,16.7345 -12,24 m 12,-24 c 8.3714,8.5487 3.7793,34.5231 -16,32 -13.4354,-25.8064 13.5314,-31.3022 16,-32 z"
         inkscape:connector-curvature="0" />
      <path
         id="use16201"
         style="fill:#8ae234;stroke:#4e9a06;stroke-width:4;stroke-linecap:round;stroke-linejoin:miter;stroke-miterlimit:4;stroke-opacity:1;stroke-dasharray:none;display:inline"
         d="m 399.47747,302.14888 c 8.8683,3.7399 19.2494,6.8982 23.642,12.6909 m -23.642,-12.6909 c -1.9111,11.8113 16.8164,30.3864 31.5226,16.9211 -3.9011,-28.8316 -29.1033,-17.7742 -31.5226,-16.9211 z"
         inkscape:connector-curvature="0" />
      <path
         id="use16203"
         style="fill:#8ae234;stroke:#4e9a06;stroke-width:4;stroke-linecap:round;stroke-linejoin:miter;stroke-miterlimit:4;stroke-opacity:1;stroke-dasharray:none;display:inline"
         d="m 444.93397,325.73018 c 9.0953,-3.1477 18.9269,-7.7392 26.0662,-6.368 m -26.0662,6.368 c 6.4751,10.0614 32.8206,11.3549 34.755,-8.4906 -22.1765,-18.8332 -33.5262,6.2387 -34.755,8.4906 z"
         inkscape:connector-curvature="0" />
      <path
         id="use16205"
         style="fill:#8ae234;stroke:#4e9a06;stroke-width:4;stroke-linecap:round;stroke-linejoin:miter;stroke-miterlimit:4;stroke-opacity:1;stroke-dasharray:none;display:inline"
         d="m 689.00017,253.36218 c -5.0897,8.1687 -11.7507,16.7345 -12,24 m 12,-24 c 8.3714,8.5487 3.7793,34.5231 -16,32 -13.4354,-25.8064 13.5314,-31.3022 16,-32 z"
         inkscape:connector-curvature="0" />
      <path
         id="use16207"
         style="fill:#8ae234;stroke:#4e9a06;stroke-width:4;stroke-linecap:round;stroke-linejoin:miter;stroke-miterlimit:4;stroke-opacity:1;stroke-dasharray:none;display:inline"
         d="m 639.60247,268.23478 c 8.8683,3.7399 19.2494,6.8982 23.642,12.6909 m -23.642,-12.6909 c -1.9111,11.8113 16.8164,30.3864 31.5226,16.9211 -3.9011,-28.8316 -29.1033,-17.7742 -31.5226,-16.9211 z"
         inkscape:connector-curvature="0" />
      <path
         id="use16209"
         style="fill:#8ae234;stroke:#4e9a06;stroke-width:4;stroke-linecap:round;stroke-linejoin:miter;stroke-miterlimit:4;stroke-opacity:1;stroke-dasharray:none;display:inline"
         d="m 679.05897,287.81598 c 9.0953,-3.1477 18.9269,-7.7392 26.0662,-6.368 m -26.0662,6.368 c 6.4751,10.0614 32.8206,11.3549 34.755,-8.4906 -22.1765,-18.8332 -33.5262,6.2387 -34.755,8.4906 z"
         inkscape:connector-curvature="0" />
      <path
         id="use16211"
         style="fill:#8ae234;stroke:#4e9a06;stroke-width:4;stroke-linecap:round;stroke-linejoin:miter;stroke-miterlimit:4;stroke-opacity:1;stroke-dasharray:none;display:inline"
         d="m 591.01757,475.19038 c -5.0897,8.1687 -11.7507,16.7345 -12,24 m 12,-24 c 8.3714,8.5487 3.7793,34.5231 -16,32 -13.4354,-25.8064 13.5314,-31.3022 16,-32 z"
         inkscape:connector-curvature="0" />
      <path
         id="use16213"
         style="fill:#8ae234;stroke:#4e9a06;stroke-width:4;stroke-linecap:round;stroke-linejoin:miter;stroke-miterlimit:4;stroke-opacity:1;stroke-dasharray:none;display:inline"
         d="m 541.61987,492.06298 c 8.8683,3.7399 19.2494,6.8982 23.642,12.6909 m -23.642,-12.6909 c -1.9111,11.8113 16.8164,30.3864 31.5226,16.9211 -3.9011,-28.8316 -29.1033,-17.7742 -31.5226,-16.9211 z"
         inkscape:connector-curvature="0" />
      <path
         id="use16215"
         style="fill:#8ae234;stroke:#4e9a06;stroke-width:4;stroke-linecap:round;stroke-linejoin:miter;stroke-miterlimit:4;stroke-opacity:1;stroke-dasharray:none;display:inline"
         d="m 585.07637,507.64428 c 9.0953,-3.1477 18.9269,-7.7392 26.0662,-6.368 m -26.0662,6.368 c 6.4751,10.0614 32.8206,11.3549 34.755,-8.4906 -22.1765,-18.8332 -33.5262,6.2387 -34.755,8.4906 z"
         inkscape:connector-curvature="0" />
      <path
         id="use16217"
         style="fill:#8ae234;stroke:#4e9a06;stroke-width:4;stroke-linecap:round;stroke-linejoin:miter;stroke-miterlimit:4;stroke-opacity:1;stroke-dasharray:none;display:inline"
         d="m 538.74947,309.36218 c -3.9701,8.7676 -9.4455,18.1357 -8.7362,25.3708 m 8.7362,-25.3708 c 9.4239,7.3723 8.2911,33.7251 -11.6482,33.8278 -16.7157,-23.8132 9.293,-32.8111 11.6482,-33.8278 z"
         inkscape:connector-curvature="0" />
      <path
         id="use16219"
         style="fill:#8ae234;stroke:#4e9a06;stroke-width:4;stroke-linecap:round;stroke-linejoin:miter;stroke-miterlimit:4;stroke-opacity:1;stroke-dasharray:none;display:inline"
         d="m 540.93397,405.73018 c 9.0953,-3.1477 18.9269,-7.7392 26.0662,-6.368 m -26.0662,6.368 c 6.4751,10.0614 32.8206,11.3549 34.755,-8.4906 -22.1765,-18.8332 -33.5262,6.2387 -34.755,8.4906 z"
         inkscape:connector-curvature="0" />
      <path
         id="use16221"
         style="fill:#8ae234;stroke:#4e9a06;stroke-width:4;stroke-linecap:round;stroke-linejoin:miter;stroke-miterlimit:4;stroke-opacity:1;stroke-dasharray:none;display:inline"
         d="m 422.95837,567.45898 c 7.2794,6.2963 16.1773,12.5068 18.5658,19.373 m -18.5658,-19.373 c -5.4661,10.6434 6.6081,34.0949 24.7544,25.8306 5.1953,-28.6267 -22.1899,-25.8947 -24.7544,-25.8306 z"
         inkscape:connector-curvature="0" />
      <path
         id="use16223"
         style="fill:#8ae234;stroke:#4e9a06;stroke-width:4;stroke-linecap:round;stroke-linejoin:miter;stroke-miterlimit:4;stroke-opacity:1;stroke-dasharray:none;display:inline"
         d="m 571.30647,346.14888 c 8.8683,3.7399 19.2494,6.8982 23.642,12.6909 m -23.642,-12.6909 c -1.9111,11.8113 16.8164,30.3864 31.5226,16.9211 -3.9011,-28.8316 -29.1033,-17.7742 -31.5226,-16.9211 z"
         inkscape:connector-curvature="0" />
      <path
         id="use16225"
         style="fill:#8ae234;stroke:#4e9a06;stroke-width:4;stroke-linecap:round;stroke-linejoin:miter;stroke-miterlimit:4;stroke-opacity:1;stroke-dasharray:none;display:inline"
         d="m 448.37767,609.52308 c -9.0953,-3.1477 -18.9269,-7.7392 -26.0662,-6.368 m 26.0662,6.368 c -6.4751,10.0614 -32.8206,11.3549 -34.755,-8.4906 22.1765,-18.8332 33.5262,6.2387 34.755,8.4906 z"
         inkscape:connector-curvature="0" />
      <path
         id="use16227"
         style="fill:#8ae234;stroke:#4e9a06;stroke-width:4;stroke-linecap:round;stroke-linejoin:miter;stroke-miterlimit:4;stroke-opacity:1;stroke-dasharray:none;display:inline"
         d="m 522.67237,588.10088 c 0.8146,9.59 0.6085,20.439 4.7591,26.4074 m -4.7591,-26.4074 c 11.8235,1.8345 23.698,25.3876 6.3455,35.2099 -26.2127,-12.6245 -7.9048,-33.1729 -6.3455,-35.2099 z"
         inkscape:connector-curvature="0" />
      <path
         id="use16229"
         style="fill:#8ae234;stroke:#4e9a06;stroke-width:4;stroke-linecap:round;stroke-linejoin:miter;stroke-miterlimit:4;stroke-opacity:1;stroke-dasharray:none;display:inline"
         d="m 413.45227,458.36608 c 9.5212,1.4069 20.3622,1.873 26.0621,6.3852 m -26.0621,-6.3852 c 1.0988,11.9144 23.8715,25.2246 34.7494,8.5136 -10.9771,-26.9441 -32.6197,-9.9438 -34.7494,-8.5136 z"
         inkscape:connector-curvature="0" />
      <path
         id="use16231"
         style="fill:#8ae234;stroke:#4e9a06;stroke-width:4;stroke-linecap:round;stroke-linejoin:miter;stroke-miterlimit:4;stroke-opacity:1;stroke-dasharray:none;display:inline"
         d="m 539.73477,618.85228 c 5.4,-7.967 10.5253,-17.5312 17.0643,-20.7077 m -17.0643,20.7077 c 11.2105,4.1814 33.0858,-10.5572 22.7524,-27.6103 -29.0382,-1.8056 -23.1165,25.0709 -22.7524,27.6103 z"
         inkscape:connector-curvature="0" />
      <path
         id="use16233"
         style="fill:#8ae234;stroke:#4e9a06;stroke-width:4;stroke-linecap:round;stroke-linejoin:miter;stroke-miterlimit:4;stroke-opacity:1;stroke-dasharray:none;display:inline"
         d="m 597.12517,255.27628 c 5.0897,8.1687 11.7507,16.7345 12,24 m -12,-24 c -8.3714,8.5487 -3.7793,34.5231 16,32 13.4354,-25.8064 -13.5314,-31.3022 -16,-32 z"
         inkscape:connector-curvature="0" />
      <path
         id="use16235"
         style="fill:#8ae234;stroke:#4e9a06;stroke-width:4;stroke-linecap:round;stroke-linejoin:miter;stroke-miterlimit:4;stroke-opacity:1;stroke-dasharray:none;display:inline"
         d="m 571.82417,299.65408 c 8.9495,-3.5411 18.5717,-8.5568 25.7639,-7.4981 m -25.7639,7.4981 c 6.9076,9.7696 33.2844,9.9135 34.3519,-9.9974 -22.9762,-17.8487 -33.2224,7.6941 -34.3519,9.9974 z"
         inkscape:connector-curvature="0" />
      <path
         id="use16237"
         style="fill:#8ae234;stroke:#4e9a06;stroke-width:4;stroke-linecap:round;stroke-linejoin:miter;stroke-miterlimit:4;stroke-opacity:1;stroke-dasharray:none;display:inline"
         d="m 683.62277,378.81898 c 9.0953,-3.1477 18.9269,-7.7392 26.0662,-6.368 m -26.0662,6.368 c 6.4751,10.0614 32.8206,11.3549 34.755,-8.4906 -22.1765,-18.8332 -33.5262,6.2387 -34.755,8.4906 z"
         inkscape:connector-curvature="0" />
      <path
         id="use16239"
         style="fill:#8ae234;stroke:#4e9a06;stroke-width:4;stroke-linecap:round;stroke-linejoin:miter;stroke-miterlimit:4;stroke-opacity:1;stroke-dasharray:none;display:inline"
         d="m 425.00027,384.90128 c -9.1995,-2.8289 -19.1851,-7.0752 -26.2723,-5.4562 m 26.2723,5.4562 c -6.1208,10.2808 -32.4052,12.4912 -35.0297,-7.2749 21.5071,-19.5941 33.7232,5.0672 35.0297,7.2749 z"
         inkscape:connector-curvature="0" />
      <path
         style="fill:none;stroke:#ce5c00;stroke-width:4;stroke-linecap:round;stroke-linejoin:miter;stroke-miterlimit:4;stroke-opacity:1;stroke-dasharray:none;display:inline"
         d="m 489.00017,675.36218 0,120"
         id="path16241"
         inkscape:connector-curvature="0" />
      <path
         style="fill:none;stroke:#ce5c00;stroke-width:4;stroke-linecap:round;stroke-linejoin:miter;stroke-miterlimit:4;stroke-opacity:1;stroke-dasharray:none;display:inline"
         d="m 513.00017,675.36218 0,120"
         id="path16243"
         inkscape:connector-curvature="0" />
      <path
         style="fill:none;stroke:#ce5c00;stroke-width:4;stroke-linecap:round;stroke-linejoin:miter;stroke-miterlimit:4;stroke-opacity:1;stroke-dasharray:none;display:inline"
         d="m 537.00017,683.36218 0,112"
         id="path16245"
         inkscape:connector-curvature="0" />
      <path
         style="fill:none;stroke:#ce5c00;stroke-width:4;stroke-linecap:round;stroke-linejoin:miter;stroke-miterlimit:4;stroke-opacity:1;stroke-dasharray:none;display:inline"
         d="m 561.00017,675.36218 0,120"
         id="path16247"
         inkscape:connector-curvature="0" />
      <path
         style="fill:none;stroke:#ce5c00;stroke-width:4;stroke-linecap:round;stroke-linejoin:miter;stroke-miterlimit:4;stroke-opacity:1;stroke-dasharray:none;display:inline"
         d="m 585.00017,675.36218 0,120"
         id="path16249"
         inkscape:connector-curvature="0" />
      <path
         inkscape:connector-curvature="0"
         id="path16251"
         d="m 485.95167,489.81778 0,157.4225"
         style="fill:none;stroke:#ce5c00;stroke-width:4;stroke-linecap:round;stroke-linejoin:miter;stroke-miterlimit:4;stroke-opacity:1;stroke-dasharray:none;display:inline" />
      <path
         inkscape:connector-curvature="0"
         id="path16253"
         d="m 587.00017,574.49078 0,67.0739"
         style="fill:none;stroke:#ce5c00;stroke-width:4;stroke-linecap:round;stroke-linejoin:miter;stroke-miterlimit:4;stroke-opacity:1;stroke-dasharray:none;display:inline" />
      <path
         style="fill:none;stroke:#ce5c00;stroke-width:4;stroke-linecap:round;stroke-linejoin:miter;stroke-miterlimit:4;stroke-opacity:1;stroke-dasharray:none;display:inline"
         d="m 604.46817,582.22478 0,67.0739"
         id="path16255"
         inkscape:connector-curvature="0" />
      <path
         style="fill:none;stroke:#ce5c00;stroke-width:4;stroke-linecap:round;stroke-linejoin:miter;stroke-miterlimit:4;stroke-opacity:1;stroke-dasharray:none;display:inline"
         d="m 467.95167,446.43158 0,173.5823"
         id="path16257"
         inkscape:connector-curvature="0" />
      <path
         style="fill:none;stroke:#ce5c00;stroke-width:4;stroke-linecap:round;stroke-linejoin:miter;stroke-miterlimit:4;stroke-opacity:1;stroke-dasharray:none;display:inline"
         d="m 641.13807,423.96518 c 0.6898,45.5558 1.4786,92.2992 -18.0204,118.9805"
         id="path16259"
         inkscape:connector-curvature="0"
         sodipodi:nodetypes="cc" />
    </g>
  </g>
</svg>
