<?xml version="1.0" encoding="UTF-8" standalone="no"?>
<!-- Created with Inkscape (http://www.inkscape.org/) -->

<svg
   xmlns:dc="http://purl.org/dc/elements/1.1/"
   xmlns:cc="http://creativecommons.org/ns#"
   xmlns:rdf="http://www.w3.org/1999/02/22-rdf-syntax-ns#"
   xmlns:svg="http://www.w3.org/2000/svg"
   xmlns="http://www.w3.org/2000/svg"
   xmlns:sodipodi="http://sodipodi.sourceforge.net/DTD/sodipodi-0.dtd"
   xmlns:inkscape="http://www.inkscape.org/namespaces/inkscape"
   width="862"
   height="474.78146"
   id="svg30122"
   version="1.1"
   inkscape:version="0.48.4 r9939"
   sodipodi:docname="branch-base.svg">
  <defs
     id="defs30124">
    <marker
       inkscape:stockid="DotL"
       orient="auto"
       refY="0"
       refX="0"
       id="DotL"
       style="overflow:visible">
      <path
         id="path5707"
         d="m -2.5,-1 c 0,2.76 -2.24,5 -5,5 -2.76,0 -5,-2.24 -5,-5 0,-2.76 2.24,-5 5,-5 2.76,0 5,2.24 5,5 z"
         style="fill-rule:evenodd;stroke:#000000;stroke-width:1pt"
         transform="matrix(0.8,0,0,0.8,5.92,0.8)"
         inkscape:connector-curvature="0" />
    </marker>
  </defs>
  <sodipodi:namedview
     id="base"
     pagecolor="#ffffff"
     bordercolor="#666666"
     borderopacity="1.0"
     inkscape:pageopacity="0.0"
     inkscape:pageshadow="2"
     inkscape:zoom="0.35"
     inkscape:cx="430"
     inkscape:cy="237.21244"
     inkscape:document-units="px"
     inkscape:current-layer="layer1"
     showgrid="false"
     inkscape:window-width="472"
     inkscape:window-height="383"
     inkscape:window-x="389"
     inkscape:window-y="24"
     inkscape:window-maximized="0"
     fit-margin-top="0"
     fit-margin-left="0"
     fit-margin-right="0"
     fit-margin-bottom="0" />
  <metadata
     id="metadata30127">
    <rdf:RDF>
      <cc:Work
         rdf:about="">
        <dc:format>image/svg+xml</dc:format>
        <dc:type
           rdf:resource="http://purl.org/dc/dcmitype/StillImage" />
        <dc:title></dc:title>
      </cc:Work>
    </rdf:RDF>
  </metadata>
  <g
     inkscape:label="Layer 1"
     inkscape:groupmode="layer"
     id="layer1"
     transform="translate(55,-294.79315)">
    <g
       transform="translate(6761,-7147.4256)"
       style="display:inline"
       id="g30013">
      <path
         sodipodi:nodetypes="cccsscccssccssccccsssccccsc"
         inkscape:connector-curvature="0"
         id="path17281"
         d="m -6366.2999,7915.001 -230.4713,0 c -11.2425,0 -25.2957,0 -25.2957,-16.8457 l 0,-198.5005 c 8.9052,-3.1555 19.8345,-6.3641 30.5217,-13.1309 14.1745,-8.9751 25.6909,-26.716 25.6909,-52.5674 l 0,-57.003 c 0,-68.4212 0,-10.034 0,-72.2858 0.052,-3.7123 -1.4385,-7.4226 -4.0451,-10.0664 -2.6066,-2.6437 -6.2955,-4.187 -10.0081,-4.187 -3.7125,0 -7.4015,1.5433 -10.0081,4.187 -2.6065,2.6438 -4.097,6.3541 -4.045,10.0664 l 0,61.8337 0,67.4551 c 0,19.1184 -4.6457,23.7698 -12.604,28.8089 -3.987,2.5245 -9.3557,4.5133 -15.5023,6.7191 l 0,-3.7109 0,-79.2987 0,-1.8555 c 0,-3.7127 -1.4384,-7.4225 -4.045,-10.0664 -2.6066,-2.6436 -6.2955,-4.1869 -10.0081,-4.1869 -3.7125,0 -7.4015,1.5433 -10.0081,4.1869 -2.6065,2.6439 -4.097,6.3542 -4.045,10.0664 l 0,1.7896 c 0,106.2267 0,218.8398 0,311.7456 0,16.8457 -14.0531,16.8457 -19.6744,16.8457 l -146.1525,0"
         style="font-size:medium;font-style:normal;font-variant:normal;font-weight:normal;font-stretch:normal;text-indent:0;text-align:start;text-decoration:none;line-height:normal;letter-spacing:normal;word-spacing:normal;text-transform:none;direction:ltr;block-progression:tb;writing-mode:lr-tb;text-anchor:start;baseline-shift:baseline;color:#000000;fill:#d3d7cf;stroke:#babdb6;stroke-width:4;stroke-miterlimit:4;stroke-opacity:1;stroke-dasharray:none;marker:none;visibility:visible;display:inline;overflow:visible;enable-background:accumulate;font-family:Sans;-inkscape-font-specification:Sans" />
      <path
         style="font-size:medium;font-style:normal;font-variant:normal;font-weight:normal;font-stretch:normal;text-indent:0;text-align:start;text-decoration:none;line-height:normal;letter-spacing:normal;word-spacing:normal;text-transform:none;direction:ltr;block-progression:tb;writing-mode:lr-tb;text-anchor:start;baseline-shift:baseline;color:#000000;fill:#cc0000;fill-opacity:1;stroke:#a40000;stroke-width:4;stroke-miterlimit:4;stroke-opacity:1;stroke-dasharray:none;marker:none;visibility:visible;display:inline;overflow:visible;enable-background:accumulate;font-family:Sans;-inkscape-font-specification:Sans"
         d="m -6622.0669,7699.6548 c 8.9052,-3.1555 19.8345,-6.3641 30.5217,-13.1309 14.1745,-8.9751 25.6909,-26.716 25.6909,-52.5674 l 0,-57.003 c 0,-68.4212 0,-10.034 0,-72.2858 0.052,-3.7123 -1.4385,-7.4226 -4.0451,-10.0664 -2.6066,-2.6437 -6.2955,-4.187 -10.0081,-4.187 -3.7125,0 -7.4015,1.5433 -10.0081,4.187 -2.6065,2.6438 -4.097,6.3541 -4.045,10.0664 l 0,61.8337 0,67.4551 c 0,19.1184 -4.6457,23.7698 -12.604,28.8089 -3.987,2.5245 -9.3557,4.5133 -15.5023,6.7191"
         id="path17283"
         inkscape:connector-curvature="0"
         sodipodi:nodetypes="cscccssccsscc" />
      <path
         id="use17287"
         style="fill:#8ae234;stroke:#4e9a06;stroke-width:5.62125111;stroke-linecap:round;stroke-linejoin:miter;stroke-miterlimit:4;stroke-opacity:1;stroke-dasharray:none"
         d="m -6560.2086,7445.3852 c -7.1526,11.4795 -16.5134,23.5172 -16.8637,33.7275 m 16.8637,-33.7275 c 11.7644,12.0136 5.3111,48.5157 -22.485,44.97 -18.881,-36.2661 19.0159,-43.9894 22.485,-44.97 z"
         inkscape:connector-curvature="0" />
      <path
         id="use17289"
         style="fill:#8ae234;stroke:#4e9a06;stroke-width:5.62125111;stroke-linecap:round;stroke-linejoin:miter;stroke-miterlimit:4;stroke-opacity:1;stroke-dasharray:none"
         d="m -6629.6278,7469.0964 c 12.4627,5.2556 27.0514,9.6941 33.2243,17.8346 m -33.2243,-17.8346 c -2.6858,16.5986 23.6323,42.7024 44.2991,23.7795 -5.4823,-40.5175 -40.8992,-24.9784 -44.2991,-23.7795 z"
         inkscape:connector-curvature="0" />
      <path
         id="use17291"
         style="fill:#8ae234;stroke:#4e9a06;stroke-width:5.62125158;stroke-linecap:round;stroke-linejoin:miter;stroke-miterlimit:4;stroke-opacity:1;stroke-dasharray:none"
         d="m -6568.558,7490.9929 c 12.7817,-4.4234 26.5983,-10.8759 36.6312,-8.9489 m -36.6312,8.9489 c 9.0996,14.1394 46.1232,15.9572 48.8416,-11.9319 -31.1648,-26.4665 -47.1148,8.7673 -48.8416,11.9319 z"
         inkscape:connector-curvature="0" />
      <path
         id="use17295"
         style="fill:#8ae234;stroke:#4e9a06;stroke-width:5.62125111;stroke-linecap:round;stroke-linejoin:miter;stroke-miterlimit:4;stroke-opacity:1;stroke-dasharray:none"
         d="m -6689.033,7713.2369 c 10.2299,8.8483 22.7342,17.576 26.0908,27.2251 m -26.0908,-27.2251 c -7.6815,14.9574 9.2865,47.914 34.7877,36.3001 7.3011,-40.2295 -31.1837,-36.3902 -34.7877,-36.3001 z"
         inkscape:connector-curvature="0" />
      <path
         id="use17297"
         style="fill:#8ae234;stroke:#4e9a06;stroke-width:5.62125158;stroke-linecap:round;stroke-linejoin:miter;stroke-miterlimit:4;stroke-opacity:1;stroke-dasharray:none"
         d="m -6653.3107,7772.35 c -12.7817,-4.4234 -26.5983,-10.8759 -36.6312,-8.9489 m 36.6312,8.9489 c -9.0996,14.1394 -46.1232,15.9572 -48.8416,-11.9319 31.1648,-26.4665 47.1148,8.7673 48.8416,11.9319 z"
         inkscape:connector-curvature="0" />
      <path
         id="use17301"
         style="fill:#8ae234;stroke:#4e9a06;stroke-width:5.62125111;stroke-linecap:round;stroke-linejoin:miter;stroke-miterlimit:4;stroke-opacity:1;stroke-dasharray:none"
         d="m -6656.255,7524.3403 c 1.1448,13.477 0.8551,28.7232 6.6881,37.1107 m -6.6881,-37.1107 c 16.6157,2.578 33.3031,35.6776 8.9174,49.4809 -36.837,-17.7413 -11.1088,-46.6183 -8.9174,-49.4809 z"
         inkscape:connector-curvature="0" />
      <path
         id="use17303"
         style="fill:#8ae234;stroke:#4e9a06;stroke-width:5.62125111;stroke-linecap:round;stroke-linejoin:miter;stroke-miterlimit:4;stroke-opacity:1;stroke-dasharray:none"
         d="m -6632.277,7567.5555 c 7.5888,-11.1961 14.7913,-24.6368 23.9808,-29.1008 m -23.9808,29.1008 c 15.7543,5.8761 46.496,-14.8362 31.9743,-38.8011 -40.8078,-2.5375 -32.486,35.2325 -31.9743,38.8011 z"
         inkscape:connector-curvature="0" />
      <path
         sodipodi:type="arc"
         style="fill:#cc0000;fill-opacity:1;stroke:#a40000;stroke-width:13.99999523;stroke-miterlimit:4;stroke-opacity:1;stroke-dasharray:none"
         id="path17305"
         sodipodi:cx="-1424.5669"
         sodipodi:cy="3068.7966"
         sodipodi:rx="42"
         sodipodi:ry="42"
         d="m -1382.5669,3068.7966 c 0,23.196 -18.804,42 -42,42 -23.196,0 -42,-18.804 -42,-42 0,-23.1959 18.804,-42 42,-42 23.196,0 42,18.8041 42,42 z"
         transform="matrix(0.28571437,0,0,0.28571437,-6228.9808,6806.201)" />
      <path
         sodipodi:nodetypes="cccccc"
         inkscape:connector-curvature="0"
         id="path17307"
         d="m -6521.7351,7771.0003 c 51.6741,0.084 108.2757,0.5785 152,0 m 0,0 -48,-20 c 4,16 4,24 0,40 l 48,-20"
         style="opacity:0.70697674;fill:#000000;fill-opacity:1;stroke:#000000;stroke-width:8;stroke-linecap:round;stroke-linejoin:miter;stroke-miterlimit:4;stroke-opacity:1;stroke-dasharray:none" />
      <text
         xml:space="preserve"
         style="font-size:40px;font-style:normal;font-weight:normal;line-height:125%;letter-spacing:0px;word-spacing:0px;fill:#000000;fill-opacity:1;stroke:none;font-family:Sans"
         x="-6805.8799"
         y="7688.5684"
         id="text17311"
         sodipodi:linespacing="125%"><tspan
           sodipodi:role="line"
           id="tspan17313"
           x="-6805.8799"
           y="7688.5684"
           style="font-size:24px;font-style:normal;font-variant:normal;font-weight:normal;font-stretch:normal;font-family:Ubuntu Mono;-inkscape-font-specification:Ubuntu Mono">branch base</tspan></text>
      <path
         inkscape:connector-curvature="0"
         id="path17315"
         d="m -6668,7683.0003 c 16,0 16,0 16,0"
         style="fill:none;stroke:#000000;stroke-width:2;stroke-linecap:butt;stroke-linejoin:miter;stroke-miterlimit:4;stroke-opacity:1;stroke-dasharray:none;marker-end:url(#DotL)" />
      <path
         sodipodi:nodetypes="cc"
         inkscape:connector-curvature="0"
         id="path17321"
         d="m -6268.811,7737.8077 72,-72"
         style="fill:none;stroke:#73d216;stroke-width:44;stroke-linecap:round;stroke-linejoin:miter;stroke-miterlimit:4;stroke-opacity:1;stroke-dasharray:none" />
      <path
         sodipodi:nodetypes="cc"
         inkscape:connector-curvature="0"
         id="path17323"
         d="m -6196.811,7501.3078 0,161.5442"
         style="fill:none;stroke:#73d216;stroke-width:44;stroke-linecap:round;stroke-linejoin:miter;stroke-miterlimit:4;stroke-opacity:1;stroke-dasharray:none" />
      <path
         style="fill:none;stroke:#babdb6;stroke-width:44;stroke-linecap:round;stroke-linejoin:miter;stroke-miterlimit:4;stroke-opacity:1;stroke-dasharray:none"
         d="m -6268.7289,7583.7475 0,308.0928"
         id="path17325"
         inkscape:connector-curvature="0"
         sodipodi:nodetypes="cc" />
      <path
         sodipodi:type="arc"
         style="fill:#ffffff;fill-opacity:1;stroke:#73d216;stroke-width:8.39999962;stroke-miterlimit:4;stroke-opacity:1;stroke-dasharray:none;display:inline"
         id="path17327"
         sodipodi:cx="-1424.5669"
         sodipodi:cy="3068.7966"
         sodipodi:rx="42"
         sodipodi:ry="42"
         d="m -1382.5669,3068.7966 c 0,23.196 -18.804,42 -42,42 -23.196,0 -42,-18.804 -42,-42 0,-23.1959 18.804,-42 42,-42 23.196,0 42,18.8041 42,42 z"
         transform="matrix(0.47619048,0,0,0.47619048,-5518.4458,6204.476)" />
      <path
         sodipodi:type="arc"
         style="fill:#ffffff;fill-opacity:1;stroke:#73d216;stroke-width:8.39999962;stroke-miterlimit:4;stroke-opacity:1;stroke-dasharray:none"
         id="path17329"
         sodipodi:cx="-1424.5669"
         sodipodi:cy="3068.7966"
         sodipodi:rx="42"
         sodipodi:ry="42"
         d="m -1382.5669,3068.7966 c 0,23.196 -18.804,42 -42,42 -23.196,0 -42,-18.804 -42,-42 0,-23.1959 18.804,-42 42,-42 23.196,0 42,18.8041 42,42 z"
         transform="matrix(0.47619048,0,0,0.47619048,-5518.4458,6060.476)" />
      <path
         transform="matrix(0.47619048,0,0,0.47619048,-5518.4458,6132.476)"
         d="m -1382.5669,3068.7966 c 0,23.196 -18.804,42 -42,42 -23.196,0 -42,-18.804 -42,-42 0,-23.1959 18.804,-42 42,-42 23.196,0 42,18.8041 42,42 z"
         sodipodi:ry="42"
         sodipodi:rx="42"
         sodipodi:cy="3068.7966"
         sodipodi:cx="-1424.5669"
         id="path17331"
         style="fill:#ffffff;fill-opacity:1;stroke:#73d216;stroke-width:8.39999962;stroke-miterlimit:4;stroke-opacity:1;stroke-dasharray:none"
         sodipodi:type="arc" />
      <path
         sodipodi:type="arc"
         style="fill:#ffffff;fill-opacity:1;stroke:#babdb6;stroke-width:8.40000057;stroke-miterlimit:4;stroke-opacity:1;stroke-dasharray:none"
         id="path17333"
         sodipodi:cx="-1424.5669"
         sodipodi:cy="3068.7966"
         sodipodi:rx="42"
         sodipodi:ry="42"
         d="m -1382.5669,3068.7966 c 0,23.196 -18.804,42 -42,42 -23.196,0 -42,-18.804 -42,-42 0,-23.1959 18.804,-42 42,-42 23.196,0 42,18.8041 42,42 z"
         transform="matrix(0.47619048,0,0,0.47619048,-5590.4458,6204.476)" />
      <path
         transform="matrix(0.47619048,0,0,0.47619048,-5590.4458,6276.476)"
         d="m -1382.5669,3068.7966 c 0,23.196 -18.804,42 -42,42 -23.196,0 -42,-18.804 -42,-42 0,-23.1959 18.804,-42 42,-42 23.196,0 42,18.8041 42,42 z"
         sodipodi:ry="42"
         sodipodi:rx="42"
         sodipodi:cy="3068.7966"
         sodipodi:cx="-1424.5669"
         id="path17335"
         style="fill:#cc0000;fill-opacity:1;stroke:#a40000;stroke-width:8.39999962;stroke-miterlimit:4;stroke-opacity:1;stroke-dasharray:none"
         sodipodi:type="arc" />
      <path
         transform="matrix(-0.47619048,0,0,0.47619048,-6947.1762,6348.476)"
         d="m -1382.5669,3068.7966 c 0,23.196 -18.804,42 -42,42 -23.196,0 -42,-18.804 -42,-42 0,-23.1959 18.804,-42 42,-42 23.196,0 42,18.8041 42,42 z"
         sodipodi:ry="42"
         sodipodi:rx="42"
         sodipodi:cy="3068.7966"
         sodipodi:cx="-1424.5669"
         id="path17337"
         style="fill:#ffffff;fill-opacity:1;stroke:#babdb6;stroke-width:8.39999962;stroke-miterlimit:4;stroke-opacity:1;stroke-dasharray:none"
         sodipodi:type="arc" />
      <path
         sodipodi:type="arc"
         style="fill:#ffffff;fill-opacity:1;stroke:#babdb6;stroke-width:8.40000057;stroke-miterlimit:4;stroke-opacity:1;stroke-dasharray:none"
         id="path17339"
         sodipodi:cx="-1424.5669"
         sodipodi:cy="3068.7966"
         sodipodi:rx="42"
         sodipodi:ry="42"
         d="m -1382.5669,3068.7966 c 0,23.196 -18.804,42 -42,42 -23.196,0 -42,-18.804 -42,-42 0,-23.1959 18.804,-42 42,-42 23.196,0 42,18.8041 42,42 z"
         transform="matrix(0.47619048,0,0,0.47619048,-5590.4458,6420.476)" />
      <path
         transform="matrix(0.47588987,0,0,0.47588987,-5590.8741,6133.3985)"
         d="m -1382.5669,3068.7966 c 0,23.196 -18.804,42 -42,42 -23.196,0 -42,-18.804 -42,-42 0,-23.1959 18.804,-42 42,-42 23.196,0 42,18.8041 42,42 z"
         sodipodi:ry="42"
         sodipodi:rx="42"
         sodipodi:cy="3068.7966"
         sodipodi:cx="-1424.5669"
         id="path17341"
         style="fill:#ffffff;fill-opacity:1;stroke:#babdb6;stroke-width:8.40530586;stroke-miterlimit:4;stroke-opacity:1;stroke-dasharray:none"
         sodipodi:type="arc" />
      <text
         sodipodi:linespacing="125%"
         id="text17343"
         y="7891.4604"
         x="-6277.4683"
         style="font-size:26.48265648px;font-style:normal;font-weight:normal;line-height:125%;letter-spacing:0px;word-spacing:0px;fill:#000000;fill-opacity:1;stroke:none;font-family:Sans"
         xml:space="preserve"><tspan
           y="7891.4604"
           x="-6277.4683"
           id="tspan17345"
           sodipodi:role="line">1</tspan></text>
      <text
         xml:space="preserve"
         style="font-size:26.48265648px;font-style:normal;font-weight:normal;line-height:125%;letter-spacing:0px;word-spacing:0px;fill:#000000;fill-opacity:1;stroke:none;font-family:Sans"
         x="-6276.8799"
         y="7819.6353"
         id="text17347"
         sodipodi:linespacing="125%"><tspan
           sodipodi:role="line"
           id="tspan17349"
           x="-6276.8799"
           y="7819.6353">2</tspan></text>
      <text
         sodipodi:linespacing="125%"
         id="text17351"
         y="7747.4478"
         x="-6277.1841"
         style="font-size:26.48265648px;font-style:normal;font-weight:normal;line-height:125%;letter-spacing:0px;word-spacing:0px;fill:#000000;fill-opacity:1;stroke:none;font-family:Sans"
         xml:space="preserve"><tspan
           y="7747.4478"
           x="-6277.1841"
           id="tspan17353"
           sodipodi:role="line"
           style="fill:#ffffff;fill-opacity:1">3</tspan></text>
      <text
         xml:space="preserve"
         style="font-size:26.48265648px;font-style:normal;font-weight:normal;line-height:125%;letter-spacing:0px;word-spacing:0px;fill:#000000;fill-opacity:1;stroke:none;font-family:Sans"
         x="-6277.1387"
         y="7675.4609"
         id="text17355"
         sodipodi:linespacing="125%"><tspan
           sodipodi:role="line"
           id="tspan17357"
           x="-6277.1387"
           y="7675.4609">4</tspan></text>
      <text
         sodipodi:linespacing="125%"
         id="text17359"
         y="7603.2734"
         x="-6277.0996"
         style="font-size:26.48265648px;font-style:normal;font-weight:normal;line-height:125%;letter-spacing:0px;word-spacing:0px;fill:#000000;fill-opacity:1;stroke:none;font-family:Sans"
         xml:space="preserve"><tspan
           y="7603.2734"
           x="-6277.0996"
           id="tspan17361"
           sodipodi:role="line">5</tspan></text>
      <text
         sodipodi:linespacing="125%"
         id="text17363"
         y="7675.4609"
         x="-6205.8628"
         style="font-size:26.48265648px;font-style:normal;font-weight:normal;line-height:125%;letter-spacing:0px;word-spacing:0px;fill:#000000;fill-opacity:1;stroke:none;font-family:Sans"
         xml:space="preserve"><tspan
           y="7675.4609"
           x="-6205.8628"
           id="tspan17365"
           sodipodi:role="line">A</tspan></text>
      <text
         sodipodi:linespacing="125%"
         id="text17367"
         y="7603.4609"
         x="-6206.2573"
         style="font-size:26.48265648px;font-style:normal;font-weight:normal;line-height:125%;letter-spacing:0px;word-spacing:0px;fill:#000000;fill-opacity:1;stroke:none;font-family:Sans"
         xml:space="preserve"><tspan
           y="7603.4609"
           x="-6206.2573"
           id="tspan17369"
           sodipodi:role="line">B</tspan></text>
      <text
         sodipodi:linespacing="125%"
         id="text17371"
         y="7531.4478"
         x="-6206.0825"
         style="font-size:26.48265648px;font-style:normal;font-weight:normal;line-height:125%;letter-spacing:0px;word-spacing:0px;fill:#000000;fill-opacity:1;stroke:none;font-family:Sans"
         xml:space="preserve"><tspan
           y="7531.4478"
           x="-6206.0825"
           id="tspan17373"
           sodipodi:role="line">C</tspan></text>
      <path
         sodipodi:nodetypes="cccccc"
         inkscape:connector-curvature="0"
         id="path17379"
         d="m -6308,7577.0003 -84,0 0,32 84,0 16,-16 z"
         style="fill:#ffffff;fill-opacity:1;stroke:#000000;stroke-width:4;stroke-linecap:round;stroke-linejoin:round;stroke-miterlimit:4;stroke-opacity:1;stroke-dasharray:none" />
      <text
         sodipodi:linespacing="125%"
         id="text17381"
         y="7598.5684"
         x="-6383.8799"
         style="font-size:40px;font-style:normal;font-weight:normal;line-height:125%;letter-spacing:0px;word-spacing:0px;fill:#000000;fill-opacity:1;stroke:none;font-family:Sans"
         xml:space="preserve"><tspan
           style="font-size:24px;font-style:normal;font-variant:normal;font-weight:normal;font-stretch:normal;font-family:Ubuntu Mono;-inkscape-font-specification:Ubuntu Mono"
           y="7598.5684"
           x="-6383.8799"
           id="tspan17383"
           sodipodi:role="line">master</tspan></text>
      <path
         style="fill:#ffffff;fill-opacity:1;stroke:#000000;stroke-width:4;stroke-linecap:round;stroke-linejoin:round;stroke-miterlimit:4;stroke-opacity:1;stroke-dasharray:none"
         d="m -6160,7507.0003 204.0001,-0.7587 0,32 -204.0001,0.7587 -16,-16 z"
         id="path17389"
         inkscape:connector-curvature="0"
         sodipodi:nodetypes="cccccc" />
      <text
         xml:space="preserve"
         style="font-size:40px;font-style:normal;font-weight:normal;line-height:125%;letter-spacing:0px;word-spacing:0px;fill:#000000;fill-opacity:1;stroke:none;font-family:Sans"
         x="-6157.8799"
         y="7530.5684"
         id="text17391"
         sodipodi:linespacing="125%"><tspan
           id="tspan17393"
           sodipodi:role="line"
           x="-6157.8799"
           y="7530.5684"
           style="font-size:24px;font-style:normal;font-variant:normal;font-weight:normal;font-stretch:normal;font-family:Ubuntu Mono;-inkscape-font-specification:Ubuntu Mono">add-user-profile</tspan></text>
    </g>
  </g>
</svg>
