<?xml version="1.0" encoding="UTF-8" standalone="no"?>
<!-- Created with Inkscape (http://www.inkscape.org/) -->

<svg
   xmlns:dc="http://purl.org/dc/elements/1.1/"
   xmlns:cc="http://creativecommons.org/ns#"
   xmlns:rdf="http://www.w3.org/1999/02/22-rdf-syntax-ns#"
   xmlns:svg="http://www.w3.org/2000/svg"
   xmlns="http://www.w3.org/2000/svg"
   xmlns:sodipodi="http://sodipodi.sourceforge.net/DTD/sodipodi-0.dtd"
   xmlns:inkscape="http://www.inkscape.org/namespaces/inkscape"
   width="718.00555"
   height="416.4722"
   id="svg24811"
   version="1.1"
   inkscape:version="0.48.4 r9939"
   sodipodi:docname="sticker.svg">
  <defs
     id="defs24813" />
  <sodipodi:namedview
     id="base"
     pagecolor="#ffffff"
     bordercolor="#666666"
     borderopacity="1.0"
     inkscape:pageopacity="0.0"
     inkscape:pageshadow="2"
     inkscape:zoom="0.35"
     inkscape:cx="359.00554"
     inkscape:cy="192.01282"
     inkscape:document-units="px"
     inkscape:current-layer="layer1"
     showgrid="false"
     inkscape:window-width="472"
     inkscape:window-height="383"
     inkscape:window-x="389"
     inkscape:window-y="24"
     inkscape:window-maximized="0"
     fit-margin-top="0"
     fit-margin-left="0"
     fit-margin-right="0"
     fit-margin-bottom="0" />
  <metadata
     id="metadata24816">
    <rdf:RDF>
      <cc:Work
         rdf:about="">
        <dc:format>image/svg+xml</dc:format>
        <dc:type
           rdf:resource="http://purl.org/dc/dcmitype/StillImage" />
        <dc:title></dc:title>
      </cc:Work>
    </rdf:RDF>
  </metadata>
  <g
     inkscape:label="Layer 1"
     inkscape:groupmode="layer"
     id="layer1"
     transform="translate(-15.994464,-307.90281)">
    <g
       id="g24889">
      <path
         sodipodi:nodetypes="cccccc"
         inkscape:connector-curvature="0"
         id="path17071"
         d="m 224,580.36218 c 51.6741,0.084 108.2757,0.5785 152,0 m 0,0 -48,-20 c 4,16 4,24 0,40 l 48,-20"
         style="opacity:0.70697674;fill:#000000;fill-opacity:1;stroke:#000000;stroke-width:8;stroke-linecap:round;stroke-linejoin:miter;stroke-miterlimit:4;stroke-opacity:1;stroke-dasharray:none;display:inline" />
      <path
         inkscape:connector-curvature="0"
         id="path17075"
         d="m 48,685.80988 0,38.5523"
         style="fill:none;stroke:#babdb6;stroke-width:64;stroke-linecap:butt;stroke-linejoin:miter;stroke-miterlimit:4;stroke-opacity:1;stroke-dasharray:none;display:inline" />
      <path
         style="fill:none;stroke:#babdb6;stroke-width:63.99999237;stroke-linecap:round;stroke-linejoin:miter;stroke-miterlimit:4;stroke-opacity:1;stroke-dasharray:none;display:inline"
         d="m 48,444.36218 0,244"
         id="path17077"
         inkscape:connector-curvature="0"
         sodipodi:nodetypes="cc" />
      <path
         sodipodi:nodetypes="cc"
         inkscape:connector-curvature="0"
         id="path17079"
         d="m 48,444.36218 0,244"
         style="fill:none;stroke:#babdb6;stroke-width:63.99999237;stroke-linecap:round;stroke-linejoin:miter;stroke-miterlimit:4;stroke-opacity:1;stroke-dasharray:none;display:inline" />
      <path
         sodipodi:type="arc"
         style="fill:#ffffff;fill-opacity:1;stroke:#babdb6;stroke-width:5.60000038;stroke-miterlimit:4;stroke-opacity:1;stroke-dasharray:none;display:inline"
         id="path17081"
         sodipodi:cx="-1424.5669"
         sodipodi:cy="3068.7966"
         sodipodi:rx="42"
         sodipodi:ry="42"
         d="m -1382.5669,3068.7966 c 0,23.196 -18.804,42 -42,42 -23.196,0 -42,-18.804 -42,-42 0,-23.1959 18.804,-42 42,-42 23.196,0 42,18.8041 42,42 z"
         transform="matrix(0.71428569,0,0,0.71428569,1065.548,-1503.6352)" />
      <path
         transform="matrix(0.71428569,0,0,0.71428569,1065.548,-1719.6353)"
         d="m -1382.5669,3068.7966 c 0,23.196 -18.804,42 -42,42 -23.196,0 -42,-18.804 -42,-42 0,-23.1959 18.804,-42 42,-42 23.196,0 42,18.8041 42,42 z"
         sodipodi:ry="42"
         sodipodi:rx="42"
         sodipodi:cy="3068.7966"
         sodipodi:cx="-1424.5669"
         id="path17083"
         style="fill:#ffffff;fill-opacity:1;stroke:#babdb6;stroke-width:5.60000038;stroke-miterlimit:4;stroke-opacity:1;stroke-dasharray:none;display:inline"
         sodipodi:type="arc" />
      <path
         sodipodi:type="arc"
         style="fill:#ffffff;fill-opacity:1;stroke:#babdb6;stroke-width:5.60000038;stroke-miterlimit:4;stroke-opacity:1;stroke-dasharray:none;display:inline"
         id="path17085"
         sodipodi:cx="-1424.5669"
         sodipodi:cy="3068.7966"
         sodipodi:rx="42"
         sodipodi:ry="42"
         d="m -1382.5669,3068.7966 c 0,23.196 -18.804,42 -42,42 -23.196,0 -42,-18.804 -42,-42 0,-23.1959 18.804,-42 42,-42 23.196,0 42,18.8041 42,42 z"
         transform="matrix(0.71428569,0,0,0.71428569,1065.548,-1719.6353)" />
      <path
         transform="matrix(0.71428569,0,0,0.71428569,1065.548,-1611.6353)"
         d="m -1382.5669,3068.7966 c 0,23.196 -18.804,42 -42,42 -23.196,0 -42,-18.804 -42,-42 0,-23.1959 18.804,-42 42,-42 23.196,0 42,18.8041 42,42 z"
         sodipodi:ry="42"
         sodipodi:rx="42"
         sodipodi:cy="3068.7966"
         sodipodi:cx="-1424.5669"
         id="path17087"
         style="fill:#ffffff;fill-opacity:1;stroke:#babdb6;stroke-width:5.60000038;stroke-miterlimit:4;stroke-opacity:1;stroke-dasharray:none;display:inline"
         sodipodi:type="arc" />
      <path
         sodipodi:type="arc"
         style="fill:#ffffff;fill-opacity:1;stroke:#babdb6;stroke-width:5.60000038;stroke-miterlimit:4;stroke-opacity:1;stroke-dasharray:none;display:inline"
         id="path17089"
         sodipodi:cx="-1424.5669"
         sodipodi:cy="3068.7966"
         sodipodi:rx="42"
         sodipodi:ry="42"
         d="m -1382.5669,3068.7966 c 0,23.196 -18.804,42 -42,42 -23.196,0 -42,-18.804 -42,-42 0,-23.1959 18.804,-42 42,-42 23.196,0 42,18.8041 42,42 z"
         transform="matrix(0.71428569,0,0,0.71428569,1497.548,-1719.6353)" />
      <path
         inkscape:connector-curvature="0"
         id="path17091"
         d="m 480,685.80988 0,38.5523"
         style="fill:none;stroke:#babdb6;stroke-width:64;stroke-linecap:butt;stroke-linejoin:miter;stroke-miterlimit:4;stroke-opacity:1;stroke-dasharray:none;display:inline" />
      <path
         style="fill:none;stroke:#73d216;stroke-width:63.99998856;stroke-linecap:round;stroke-linejoin:miter;stroke-miterlimit:4;stroke-opacity:1;stroke-dasharray:none;display:inline"
         d="m 480,340.36218 0,102.2219"
         id="path17093"
         inkscape:connector-curvature="0"
         sodipodi:nodetypes="cc" />
      <path
         sodipodi:type="arc"
         style="fill:#ffffff;fill-opacity:1;stroke:#babdb6;stroke-width:5.60000038;stroke-miterlimit:4;stroke-opacity:1;stroke-dasharray:none;display:inline"
         id="path17095"
         sodipodi:cx="-1424.5669"
         sodipodi:cy="3068.7966"
         sodipodi:rx="42"
         sodipodi:ry="42"
         d="m -1382.5669,3068.7966 c 0,23.196 -18.804,42 -42,42 -23.196,0 -42,-18.804 -42,-42 0,-23.1959 18.804,-42 42,-42 23.196,0 42,18.8041 42,42 z"
         transform="matrix(0.71428569,0,0,0.71428569,1497.548,-1826.8766)" />
      <path
         transform="matrix(0.71428569,0,0,0.71428569,1497.548,-1826.8766)"
         d="m -1382.5669,3068.7966 c 0,23.196 -18.804,42 -42,42 -23.196,0 -42,-18.804 -42,-42 0,-23.1959 18.804,-42 42,-42 23.196,0 42,18.8041 42,42 z"
         sodipodi:ry="42"
         sodipodi:rx="42"
         sodipodi:cy="3068.7966"
         sodipodi:cx="-1424.5669"
         id="path17097"
         style="fill:#ffffff;fill-opacity:1;stroke:#73d216;stroke-width:5.60000038;stroke-miterlimit:4;stroke-opacity:1;stroke-dasharray:none;display:inline"
         sodipodi:type="arc" />
      <path
         style="fill:none;stroke:#babdb6;stroke-width:63.99999237;stroke-linecap:round;stroke-linejoin:miter;stroke-miterlimit:4;stroke-opacity:1;stroke-dasharray:none;display:inline"
         d="m 480,448.02488 0,240.7453"
         id="path17099"
         inkscape:connector-curvature="0"
         sodipodi:nodetypes="cc" />
      <path
         sodipodi:type="arc"
         style="fill:#ffffff;fill-opacity:1;stroke:#babdb6;stroke-width:5.60000038;stroke-miterlimit:4;stroke-opacity:1;stroke-dasharray:none;display:inline"
         id="path17101"
         sodipodi:cx="-1424.5669"
         sodipodi:cy="3068.7966"
         sodipodi:rx="42"
         sodipodi:ry="42"
         d="m -1382.5669,3068.7966 c 0,23.196 -18.804,42 -42,42 -23.196,0 -42,-18.804 -42,-42 0,-23.1959 18.804,-42 42,-42 23.196,0 42,18.8041 42,42 z"
         transform="matrix(0.71428569,0,0,0.71428569,1497.548,-1503.6352)" />
      <path
         transform="matrix(0.71428569,0,0,0.71428569,1497.548,-1719.6353)"
         d="m -1382.5669,3068.7966 c 0,23.196 -18.804,42 -42,42 -23.196,0 -42,-18.804 -42,-42 0,-23.1959 18.804,-42 42,-42 23.196,0 42,18.8041 42,42 z"
         sodipodi:ry="42"
         sodipodi:rx="42"
         sodipodi:cy="3068.7966"
         sodipodi:cx="-1424.5669"
         id="path17103"
         style="fill:#ffffff;fill-opacity:1;stroke:#babdb6;stroke-width:5.60000038;stroke-miterlimit:4;stroke-opacity:1;stroke-dasharray:none;display:inline"
         sodipodi:type="arc" />
      <path
         transform="matrix(0.71428569,0,0,0.71428569,1497.548,-1611.6353)"
         d="m -1382.5669,3068.7966 c 0,23.196 -18.804,42 -42,42 -23.196,0 -42,-18.804 -42,-42 0,-23.1959 18.804,-42 42,-42 23.196,0 42,18.8041 42,42 z"
         sodipodi:ry="42"
         sodipodi:rx="42"
         sodipodi:cy="3068.7966"
         sodipodi:cx="-1424.5669"
         id="path17105"
         style="fill:#ffffff;fill-opacity:1;stroke:#babdb6;stroke-width:5.60000038;stroke-miterlimit:4;stroke-opacity:1;stroke-dasharray:none;display:inline"
         sodipodi:type="arc" />
      <path
         sodipodi:nodetypes="cccccc"
         inkscape:connector-curvature="0"
         id="path17111"
         d="M 527.9999,353.12088 732,352.36218 l 0,32 -204.0001,0.7587 -16,-16 z"
         style="fill:#ffffff;fill-opacity:1;stroke:#000000;stroke-width:4;stroke-linecap:round;stroke-linejoin:round;stroke-miterlimit:4;stroke-opacity:1;stroke-dasharray:none;display:inline" />
      <text
         sodipodi:linespacing="125%"
         id="text17113"
         y="376.68854"
         x="530.12012"
         style="font-size:40px;font-style:normal;font-weight:normal;line-height:125%;letter-spacing:0px;word-spacing:0px;fill:#000000;fill-opacity:1;stroke:none;display:inline;font-family:Sans"
         xml:space="preserve"><tspan
           style="font-size:24px;font-style:normal;font-variant:normal;font-weight:normal;font-stretch:normal;font-family:Ubuntu Mono;-inkscape-font-specification:Ubuntu Mono"
           y="376.68854"
           x="530.12012"
           sodipodi:role="line"
           id="tspan17115">add-user-profile</tspan></text>
      <path
         style="fill:#ffffff;fill-opacity:1;stroke:#000000;stroke-width:4;stroke-linecap:round;stroke-linejoin:round;stroke-miterlimit:4;stroke-opacity:1;stroke-dasharray:none;display:inline"
         d="m 96,452.36218 204.0001,-0.7587 0,32 -204.0001,0.7587 -16,-16 z"
         id="path17121"
         inkscape:connector-curvature="0"
         sodipodi:nodetypes="cccccc" />
      <text
         xml:space="preserve"
         style="font-size:40px;font-style:normal;font-weight:normal;line-height:125%;letter-spacing:0px;word-spacing:0px;fill:#000000;fill-opacity:1;stroke:none;display:inline;font-family:Sans"
         x="98.120117"
         y="475.93024"
         id="text17123"
         sodipodi:linespacing="125%"><tspan
           id="tspan17125"
           sodipodi:role="line"
           x="98.120117"
           y="475.93024"
           style="font-size:24px;font-style:normal;font-variant:normal;font-weight:normal;font-stretch:normal;font-family:Ubuntu Mono;-inkscape-font-specification:Ubuntu Mono">add-user-profile</tspan></text>
    </g>
  </g>
</svg>
