<?xml version="1.0" encoding="UTF-8" standalone="no"?>
<!-- Created with Inkscape (http://www.inkscape.org/) -->

<svg
   xmlns:dc="http://purl.org/dc/elements/1.1/"
   xmlns:cc="http://creativecommons.org/ns#"
   xmlns:rdf="http://www.w3.org/1999/02/22-rdf-syntax-ns#"
   xmlns:svg="http://www.w3.org/2000/svg"
   xmlns="http://www.w3.org/2000/svg"
   xmlns:sodipodi="http://sodipodi.sourceforge.net/DTD/sodipodi-0.dtd"
   xmlns:inkscape="http://www.inkscape.org/namespaces/inkscape"
   width="820"
   height="667.67767"
   id="svg24648"
   version="1.1"
   inkscape:version="0.48.4 r9939"
   sodipodi:docname="stickers.svg">
  <defs
     id="defs24650" />
  <sodipodi:namedview
     id="base"
     pagecolor="#ffffff"
     bordercolor="#666666"
     borderopacity="1.0"
     inkscape:pageopacity="0.0"
     inkscape:pageshadow="2"
     inkscape:zoom="0.35"
     inkscape:cx="410.00002"
     inkscape:cy="333.8433"
     inkscape:document-units="px"
     inkscape:current-layer="layer1"
     showgrid="false"
     inkscape:window-width="472"
     inkscape:window-height="383"
     inkscape:window-x="389"
     inkscape:window-y="24"
     inkscape:window-maximized="0"
     fit-margin-top="0"
     fit-margin-left="0"
     fit-margin-right="0"
     fit-margin-bottom="0" />
  <metadata
     id="metadata24653">
    <rdf:RDF>
      <cc:Work
         rdf:about="">
        <dc:format>image/svg+xml</dc:format>
        <dc:type
           rdf:resource="http://purl.org/dc/dcmitype/StillImage" />
        <dc:title></dc:title>
      </cc:Work>
    </rdf:RDF>
  </metadata>
  <g
     inkscape:label="Layer 1"
     inkscape:groupmode="layer"
     id="layer1"
     transform="translate(35.000019,-198.52782)">
    <g
       id="g24744">
      <path
         style="fill:none;stroke:#babdb6;stroke-width:63.99999237;stroke-linecap:round;stroke-linejoin:miter;stroke-miterlimit:4;stroke-opacity:1;stroke-dasharray:none;display:inline"
         d="m 223.5,338.96813 0,352"
         id="path16999"
         inkscape:connector-curvature="0"
         sodipodi:nodetypes="cc" />
      <path
         sodipodi:nodetypes="cc"
         inkscape:connector-curvature="0"
         id="path17001"
         d="m 335.5,446.96813 0,244"
         style="fill:none;stroke:#babdb6;stroke-width:63.99999237;stroke-linecap:round;stroke-linejoin:miter;stroke-miterlimit:4;stroke-opacity:1;stroke-dasharray:none;display:inline" />
      <path
         style="fill:none;stroke:#babdb6;stroke-width:63.99999237;stroke-linecap:round;stroke-linejoin:miter;stroke-miterlimit:4;stroke-opacity:1;stroke-dasharray:none;display:inline"
         d="m 279.5,760.28243 56,-69.3143"
         id="path17003"
         inkscape:connector-curvature="0"
         sodipodi:nodetypes="cc" />
      <path
         sodipodi:nodetypes="cc"
         inkscape:connector-curvature="0"
         id="path17005"
         d="m 279.5,760.28243 -56,-69.3143"
         style="fill:none;stroke:#babdb6;stroke-width:63.99999237;stroke-linecap:round;stroke-linejoin:miter;stroke-miterlimit:4;stroke-opacity:1;stroke-dasharray:none;display:inline" />
      <path
         style="fill:none;stroke:#babdb6;stroke-width:63.99999237;stroke-linecap:round;stroke-linejoin:miter;stroke-miterlimit:4;stroke-opacity:1;stroke-dasharray:none;display:inline"
         d="m 279.5,760.28243 0,73.4738"
         id="path17007"
         inkscape:connector-curvature="0" />
      <path
         style="fill:none;stroke:#babdb6;stroke-width:63.99999237;stroke-linecap:round;stroke-linejoin:miter;stroke-miterlimit:4;stroke-opacity:1;stroke-dasharray:none;display:inline"
         d="m 447.5,230.96813 0,244"
         id="path17009"
         inkscape:connector-curvature="0"
         sodipodi:nodetypes="cc" />
      <path
         sodipodi:nodetypes="cc"
         inkscape:connector-curvature="0"
         id="path17011"
         d="m 335.5,582.96813 112,-108"
         style="fill:none;stroke:#babdb6;stroke-width:63.99999237;stroke-linecap:round;stroke-linejoin:miter;stroke-miterlimit:4;stroke-opacity:1;stroke-dasharray:none;display:inline" />
      <path
         style="fill:none;stroke:#babdb6;stroke-width:4;stroke-linecap:butt;stroke-linejoin:miter;stroke-miterlimit:4;stroke-opacity:1;stroke-dasharray:4.00000002, 4.00000002;stroke-dashoffset:0;marker-end:none;display:inline"
         d="m 279,826.27773 0,32.3808"
         id="path17015"
         inkscape:connector-curvature="0" />
      <path
         sodipodi:type="arc"
         style="fill:#ffffff;fill-opacity:1;stroke:#babdb6;stroke-width:5.60000038;stroke-miterlimit:4;stroke-opacity:1;stroke-dasharray:none;display:inline"
         id="path17017"
         sodipodi:cx="-1424.5669"
         sodipodi:cy="3068.7966"
         sodipodi:rx="42"
         sodipodi:ry="42"
         d="m -1382.5669,3068.7966 c 0,23.196 -18.804,42 -42,42 -23.196,0 -42,-18.804 -42,-42 0,-23.1959 18.804,-42 42,-42 23.196,0 42,18.8041 42,42 z"
         transform="matrix(0.71428571,0,0,0.71428571,1297.048,-1397.0295)" />
      <path
         transform="matrix(0.71428569,0,0,0.71428569,1241.048,-1609.0294)"
         d="m -1382.5669,3068.7966 c 0,23.196 -18.804,42 -42,42 -23.196,0 -42,-18.804 -42,-42 0,-23.1959 18.804,-42 42,-42 23.196,0 42,18.8041 42,42 z"
         sodipodi:ry="42"
         sodipodi:rx="42"
         sodipodi:cy="3068.7966"
         sodipodi:cx="-1424.5669"
         id="path17019"
         style="fill:#ffffff;fill-opacity:1;stroke:#babdb6;stroke-width:5.60000038;stroke-miterlimit:4;stroke-opacity:1;stroke-dasharray:none;display:inline"
         sodipodi:type="arc" />
      <path
         sodipodi:type="arc"
         style="fill:#ffffff;fill-opacity:1;stroke:#babdb6;stroke-width:5.60000038;stroke-miterlimit:4;stroke-opacity:1;stroke-dasharray:none;display:inline"
         id="path17021"
         sodipodi:cx="-1424.5669"
         sodipodi:cy="3068.7966"
         sodipodi:rx="42"
         sodipodi:ry="42"
         d="m -1382.5669,3068.7966 c 0,23.196 -18.804,42 -42,42 -23.196,0 -42,-18.804 -42,-42 0,-23.1959 18.804,-42 42,-42 23.196,0 42,18.8041 42,42 z"
         transform="matrix(0.71428569,0,0,0.71428569,1241.048,-1717.0294)" />
      <path
         transform="matrix(0.71428569,0,0,0.71428569,1465.048,-1717.0293)"
         d="m -1382.5669,3068.7966 c 0,23.196 -18.804,42 -42,42 -23.196,0 -42,-18.804 -42,-42 0,-23.1959 18.804,-42 42,-42 23.196,0 42,18.8041 42,42 z"
         sodipodi:ry="42"
         sodipodi:rx="42"
         sodipodi:cy="3068.7966"
         sodipodi:cx="-1424.5669"
         id="path17023"
         style="fill:#ffffff;fill-opacity:1;stroke:#babdb6;stroke-width:5.60000038;stroke-miterlimit:4;stroke-opacity:1;stroke-dasharray:none;display:inline"
         sodipodi:type="arc" />
      <path
         transform="matrix(0.71428569,0,0,0.71428569,1353.048,-1717.0294)"
         d="m -1382.5669,3068.7966 c 0,23.196 -18.804,42 -42,42 -23.196,0 -42,-18.804 -42,-42 0,-23.1959 18.804,-42 42,-42 23.196,0 42,18.8041 42,42 z"
         sodipodi:ry="42"
         sodipodi:rx="42"
         sodipodi:cy="3068.7966"
         sodipodi:cx="-1424.5669"
         id="path17025"
         style="fill:#ffffff;fill-opacity:1;stroke:#babdb6;stroke-width:5.60000038;stroke-miterlimit:4;stroke-opacity:1;stroke-dasharray:none;display:inline"
         sodipodi:type="arc" />
      <path
         transform="matrix(0.71428569,0,0,0.71428569,1241.048,-1501.0294)"
         d="m -1382.5669,3068.7966 c 0,23.196 -18.804,42 -42,42 -23.196,0 -42,-18.804 -42,-42 0,-23.1959 18.804,-42 42,-42 23.196,0 42,18.8041 42,42 z"
         sodipodi:ry="42"
         sodipodi:rx="42"
         sodipodi:cy="3068.7966"
         sodipodi:cx="-1424.5669"
         id="path17027"
         style="fill:#ffffff;fill-opacity:1;stroke:#babdb6;stroke-width:5.60000038;stroke-miterlimit:4;stroke-opacity:1;stroke-dasharray:none;display:inline"
         sodipodi:type="arc" />
      <path
         sodipodi:type="arc"
         style="fill:#ffffff;fill-opacity:1;stroke:#babdb6;stroke-width:5.60000038;stroke-miterlimit:4;stroke-opacity:1;stroke-dasharray:none;display:inline"
         id="path17029"
         sodipodi:cx="-1424.5669"
         sodipodi:cy="3068.7966"
         sodipodi:rx="42"
         sodipodi:ry="42"
         d="m -1382.5669,3068.7966 c 0,23.196 -18.804,42 -42,42 -23.196,0 -42,-18.804 -42,-42 0,-23.1959 18.804,-42 42,-42 23.196,0 42,18.8041 42,42 z"
         transform="matrix(0.71428569,0,0,0.71428569,1353.048,-1609.0294)" />
      <path
         sodipodi:type="arc"
         style="fill:#ffffff;fill-opacity:1;stroke:#babdb6;stroke-width:5.60000038;stroke-miterlimit:4;stroke-opacity:1;stroke-dasharray:none;display:inline"
         id="path17031"
         sodipodi:cx="-1424.5669"
         sodipodi:cy="3068.7966"
         sodipodi:rx="42"
         sodipodi:ry="42"
         d="m -1382.5669,3068.7966 c 0,23.196 -18.804,42 -42,42 -23.196,0 -42,-18.804 -42,-42 0,-23.1959 18.804,-42 42,-42 23.196,0 42,18.8041 42,42 z"
         transform="matrix(0.71428569,0,0,0.71428569,1465.048,-1933.0294)" />
      <path
         transform="matrix(0.71428569,0,0,0.71428569,1465.048,-1933.0294)"
         d="m -1382.5669,3068.7966 c 0,23.196 -18.804,42 -42,42 -23.196,0 -42,-18.804 -42,-42 0,-23.1959 18.804,-42 42,-42 23.196,0 42,18.8041 42,42 z"
         sodipodi:ry="42"
         sodipodi:rx="42"
         sodipodi:cy="3068.7966"
         sodipodi:cx="-1424.5669"
         id="path17033"
         style="fill:#ffffff;fill-opacity:1;stroke:#babdb6;stroke-width:5.60000038;stroke-miterlimit:4;stroke-opacity:1;stroke-dasharray:none;display:inline"
         sodipodi:type="arc" />
      <path
         transform="matrix(0.71428569,0,0,0.71428569,1241.048,-1825.0294)"
         d="m -1382.5669,3068.7966 c 0,23.196 -18.804,42 -42,42 -23.196,0 -42,-18.804 -42,-42 0,-23.1959 18.804,-42 42,-42 23.196,0 42,18.8041 42,42 z"
         sodipodi:ry="42"
         sodipodi:rx="42"
         sodipodi:cy="3068.7966"
         sodipodi:cx="-1424.5669"
         id="path17035"
         style="fill:#ffffff;fill-opacity:1;stroke:#babdb6;stroke-width:5.60000038;stroke-miterlimit:4;stroke-opacity:1;stroke-dasharray:none;display:inline"
         sodipodi:type="arc" />
      <path
         sodipodi:type="arc"
         style="fill:#ffffff;fill-opacity:1;stroke:#babdb6;stroke-width:5.60000038;stroke-miterlimit:4;stroke-opacity:1;stroke-dasharray:none;display:inline"
         id="path17037"
         sodipodi:cx="-1424.5669"
         sodipodi:cy="3068.7966"
         sodipodi:rx="42"
         sodipodi:ry="42"
         d="m -1382.5669,3068.7966 c 0,23.196 -18.804,42 -42,42 -23.196,0 -42,-18.804 -42,-42 0,-23.1959 18.804,-42 42,-42 23.196,0 42,18.8041 42,42 z"
         transform="matrix(0.71428569,0,0,0.71428569,1465.048,-1825.0294)" />
      <path
         sodipodi:type="arc"
         style="fill:#ffffff;fill-opacity:1;stroke:#babdb6;stroke-width:5.60000038;stroke-miterlimit:4;stroke-opacity:1;stroke-dasharray:none;display:inline"
         id="path17039"
         sodipodi:cx="-1424.5669"
         sodipodi:cy="3068.7966"
         sodipodi:rx="42"
         sodipodi:ry="42"
         d="m -1382.5669,3068.7966 c 0,23.196 -18.804,42 -42,42 -23.196,0 -42,-18.804 -42,-42 0,-23.1959 18.804,-42 42,-42 23.196,0 42,18.8041 42,42 z"
         transform="matrix(-0.71428569,0,0,0.71428569,-682.048,-1501.0294)" />
      <path
         style="fill:#ffffff;fill-opacity:1;stroke:#000000;stroke-width:4;stroke-linecap:round;stroke-linejoin:round;stroke-miterlimit:4;stroke-opacity:1;stroke-dasharray:none;display:inline"
         d="m 495,242.65853 288,0 0,32 -288,0 -16,-16 z"
         id="path17041"
         inkscape:connector-curvature="0"
         sodipodi:nodetypes="cccccc" />
      <text
         xml:space="preserve"
         style="font-size:40px;font-style:normal;font-weight:normal;line-height:125%;letter-spacing:0px;word-spacing:0px;fill:#000000;fill-opacity:1;stroke:none;display:inline;font-family:Sans"
         x="497.12012"
         y="266.22659"
         id="text17043"
         sodipodi:linespacing="125%"><tspan
           id="tspan17045"
           sodipodi:role="line"
           x="497.12012"
           y="266.22659"
           style="font-size:24px;font-style:normal;font-variant:normal;font-weight:normal;font-stretch:normal;font-family:Ubuntu Mono;-inkscape-font-specification:Ubuntu Mono">fix-missing-pages-index</tspan></text>
      <path
         sodipodi:nodetypes="cccccc"
         inkscape:connector-curvature="0"
         id="path17047"
         d="m 335.8342,421.19583 35.7415,-71.572 28.6288,14.2966 -35.7415,71.572 -21.4627,7.1661 z"
         style="fill:#ffffff;fill-opacity:1;stroke:#000000;stroke-width:4;stroke-linecap:round;stroke-linejoin:round;stroke-miterlimit:4;stroke-opacity:1;stroke-dasharray:none;display:inline" />
      <text
         sodipodi:linespacing="125%"
         id="text17049"
         y="512.19867"
         x="-224.6626"
         style="font-size:40px;font-style:normal;font-weight:normal;line-height:125%;letter-spacing:0px;word-spacing:0px;fill:#000000;fill-opacity:1;stroke:none;display:inline;font-family:Sans"
         xml:space="preserve"
         transform="matrix(0.44676791,-0.89464989,0.89464989,0.44676791,0,0)"><tspan
           style="font-size:24px;font-style:normal;font-variant:normal;font-weight:normal;font-stretch:normal;font-family:Ubuntu Mono;-inkscape-font-specification:Ubuntu Mono"
           y="512.19867"
           x="-224.6626"
           sodipodi:role="line"
           id="tspan17051">master</tspan></text>
      <path
         style="fill:#ffffff;fill-opacity:1;stroke:#000000;stroke-width:4;stroke-linecap:round;stroke-linejoin:round;stroke-miterlimit:4;stroke-opacity:1;stroke-dasharray:none;display:inline"
         d="m 175,346.65853 -208,0 0,32 208,0 16,-16 z"
         id="path17055"
         inkscape:connector-curvature="0"
         sodipodi:nodetypes="cccccc" />
      <text
         xml:space="preserve"
         style="font-size:40px;font-style:normal;font-weight:normal;line-height:125%;letter-spacing:0px;word-spacing:0px;fill:#000000;fill-opacity:1;stroke:none;display:inline;font-family:Sans"
         x="-24.879883"
         y="368.22659"
         id="text17057"
         sodipodi:linespacing="125%"><tspan
           sodipodi:role="line"
           id="tspan17059"
           x="-24.879883"
           y="368.22659"
           style="font-size:24px;font-style:normal;font-variant:normal;font-weight:normal;font-stretch:normal;font-family:Ubuntu Mono;-inkscape-font-specification:Ubuntu Mono">add-user-profile</tspan></text>
      <path
         style="fill:#ffffff;fill-opacity:1;stroke:#000000;stroke-width:4;stroke-linecap:round;stroke-linejoin:round;stroke-miterlimit:4;stroke-opacity:1;stroke-dasharray:none;display:inline"
         d="m 335.8342,421.19583 35.7415,-71.572 28.6288,14.2966 -35.7415,71.572 -21.4627,7.1661 z"
         id="path17063"
         inkscape:connector-curvature="0"
         sodipodi:nodetypes="cccccc" />
      <text
         transform="matrix(0.44676791,-0.89464989,0.89464989,0.44676791,0,0)"
         xml:space="preserve"
         style="font-size:40px;font-style:normal;font-weight:normal;line-height:125%;letter-spacing:0px;word-spacing:0px;fill:#000000;fill-opacity:1;stroke:none;display:inline;font-family:Sans"
         x="-224.6626"
         y="512.19867"
         id="text17065"
         sodipodi:linespacing="125%"><tspan
           id="tspan17067"
           sodipodi:role="line"
           x="-224.6626"
           y="512.19867"
           style="font-size:24px;font-style:normal;font-variant:normal;font-weight:normal;font-stretch:normal;font-family:Ubuntu Mono;-inkscape-font-specification:Ubuntu Mono">master</tspan></text>
    </g>
  </g>
</svg>
